<?xml version="1.0" encoding="UTF-8"?>
<svg width="22px" height="18px" viewBox="0 0 22 18" version="1.1" xmlns="http://www.w3.org/2000/svg" xmlns:xlink="http://www.w3.org/1999/xlink">
    <!-- Generator: Sketch 44.1 (41455) - http://www.bohemiancoding.com/sketch -->
    <title>career-icon</title>
    <desc>Created with Sketch.</desc>
    <defs></defs>
    <g id="Page-1" stroke="none" stroke-width="1" fill="none" fill-rule="evenodd">
        <g id="career-icon" fill="#904EE1">
            <path d="M13.748,12.38 C13.7478431,12.5783767 13.6635225,12.767371 13.516,12.9 C13.3696814,13.0472957 13.1706178,13.1300889 12.963,13.13 L9.034,13.13 C8.82633784,13.1303116 8.62719195,13.0474842 8.481,12.9 C8.33347749,12.767371 8.24915693,12.5783767 8.249,12.38 L8.249,10.5 L4.97038933e-16,10.5 L4.97038933e-16,16.13 C-0.00327038414,16.6318562 0.20641923,17.1115621 0.577,17.45 C0.94689977,17.8124955 1.44720331,18.0107426 1.965,18 L20.036,18 C20.5537558,18.0105158 21.0539747,17.8123023 21.424,17.45 C21.7950008,17.1118629 22.0047765,16.6319601 22.001,16.13 L22.001,10.5 L13.75,10.5 L13.75,12.38 L13.75,12.38 L13.748,12.38 Z M9.427,10.5 L12.57,10.5 L12.57,12 L9.427,12 L9.427,10.5 Z M21.427,3.55 C21.0569747,3.18769773 20.5567558,2.98948419 20.039,3 L15.718,3 L15.718,1.12 C15.7212522,0.81965686 15.5960897,0.532219591 15.374,0.33 C15.1515535,0.112530706 14.8510218,-0.00638473718 14.54,2.26985043e-13 L7.468,2.26985043e-13 C7.15669488,-0.00631595392 6.85587842,0.112569594 6.633,0.33 C6.41048321,0.531913452 6.2852327,0.819552715 6.289,1.12 L6.289,3 L1.968,3 C1.45020331,2.98925744 0.94989977,3.18750452 0.58,3.55 C0.20941923,3.88843793 -0.000270384142,4.3681438 0.003,4.87 L0.003,9.37 L22.003,9.37 L22.003,4.87 C22.0057539,4.36742006 21.7944811,3.88741969 21.422,3.55 L21.427,3.55 Z M14.146,3 L7.86,3 L7.86,1.5 L14.146,1.5 L14.146,3 Z" id="_-e-Forma_1"></path>
        </g>
    </g>
</svg>