<?xml version="1.0" encoding="UTF-8"?>
<svg width="756px" height="113px" viewBox="0 0 756 113" version="1.1" xmlns="http://www.w3.org/2000/svg" xmlns:xlink="http://www.w3.org/1999/xlink">
    <!-- Generator: Sketch 41.2 (35397) - http://www.bohemiancoding.com/sketch -->
    <title>bv-logo-white</title>
    <desc>Created with Sketch.</desc>
    <defs>
        <linearGradient x1="50.0000882%" y1="97.6723981%" x2="50.0000894%" y2="0%" id="linearGradient-1">
            <stop stop-color="#80B44B" offset="0%"></stop>
            <stop stop-color="#69A543" offset="100%"></stop>
        </linearGradient>
    </defs>
    <g id="Page-1" stroke="none" stroke-width="1" fill="none" fill-rule="evenodd">
        <g id="bv-logo-white">
            <g id="Layer_1">
                <g id="bv_logo_color_white">
                    <path d="M0,15.16 C0,11.3 1.89,8.29 6.34,8.29 L27.24,8.29 C44.24,8.29 53.14,21.02 53.14,32.6 C53.14,43.76 47.61,52.34 39.79,54.91 L39.79,55.2 C51.39,56.49 60.56,66.93 60.56,80.37 C60.56,96.37 49.37,110.12 29.13,110.12 L6.34,110.12 C1.89,110.12 0,107.12 0,103.25 L0,15.16 Z M11.87,51.34 L25.36,51.34 C35.48,51.34 41.28,44.19 41.28,34.89 C41.28,25.59 36.28,19.17 25.72,19.17 L11.87,19.17 L11.87,51.34 Z M11.87,99.25 L28.59,99.25 C40.19,99.25 48.69,91.67 48.69,80.37 C48.69,69.93 41.54,61.63 29.13,61.63 L11.87,61.63 L11.87,99.25 Z" id="Shape" fill="#FFFFFF"></path>
                    <path d="M76.22,76.95 C76.22,89.95 84.04,100.12 97.4,100.12 C113.18,100.12 117.23,89.82 121.68,89.82 C123.84,89.82 126,91.82 126,95.4 C126,101.55 111.3,110.99 97.27,110.99 C74.34,110.99 64.36,92.25 64.36,72.09 C64.36,51.5 76.5,33.19 96.6,33.19 C116.16,33.19 127.49,51.93 127.49,70.19 C127.49,74.62 126,76.91 120.88,76.91 L76.22,76.95 Z M115.6,67.51 C115.6,56.64 109.67,44.05 96.6,44.05 C81.9,43.48 76.6,55.92 76.23,67.51 L115.6,67.51 Z" id="Shape" fill="#FFFFFF"></path>
                    <path d="M142.61,76.95 C142.61,89.95 150.43,100.12 163.79,100.12 C179.57,100.12 183.62,89.82 188.07,89.82 C190.23,89.82 192.39,91.82 192.39,95.4 C192.39,101.55 177.69,110.99 163.66,110.99 C140.72,110.95 130.72,92.25 130.72,72.08 C130.72,51.49 142.86,33.18 162.95,33.18 C182.51,33.18 193.84,51.92 193.84,70.18 C193.84,74.61 192.36,76.9 187.23,76.9 L142.61,76.95 Z M181.99,67.51 C181.99,56.64 176.06,44.05 162.99,44.05 C148.29,43.48 142.99,55.92 142.62,67.51 L181.99,67.51 Z" id="Shape" fill="#FFFFFF"></path>
                    <path d="M199.56,39.95 C199.56,35.8 201.85,33.23 205.5,33.23 C209.15,33.23 211.43,35.8 211.43,39.95 L211.43,42.95 L211.7,43.24 C216.277359,36.8648773 223.682553,33.1305387 231.53,33.24 C242.59,33.24 256.53,40.68 256.53,62.13 L256.53,104.32 C256.53,108.47 254.24,111.04 250.59,111.04 C246.94,111.04 244.66,108.47 244.66,104.32 L244.66,62.79 C244.66,49.49 235.89,44.05 228.07,44.05 C220.25,44.05 211.48,49.48 211.48,62.79 L211.48,104.27 C211.48,108.42 209.19,110.99 205.55,110.99 C201.91,110.99 199.61,108.42 199.61,104.27 L199.56,39.95 Z" id="Shape" fill="#FFFFFF"></path>
                    <path d="M257.21,23.03 C256.560735,21.3431497 256.241617,19.547264 256.27,17.74 C256.297553,12.0316641 260.941622,7.42338741 266.65,7.44 C271.24,7.44 274.07,10.59 275.82,14.44 L296.72,73.95 L317.62,14.46 C319.38,10.6 322.21,7.46 326.79,7.46 C332.498378,7.44338741 337.142447,12.0516641 337.17,17.76 C337.197143,19.5671643 336.878067,21.3628163 336.23,23.05 L306.72,102.69 C304.96,107.27 302.72,110.98 296.72,110.98 C290.72,110.98 288.49,107.26 286.72,102.69 L257.21,23.03 Z" id="Shape" fill="url(#linearGradient-1)"></path>
                    <path d="M346.66,78.95 C348.01,89.11 355.96,93.83 365,93.83 C375,93.83 381.86,85.53 387,85.53 C391.18,85.53 395,89.96 395,94.4 C395,103.27 377.74,111.85 363.3,111.85 C341.45,111.85 326.89,94.98 326.89,72.24 C326.89,51.36 341.19,32.34 361.68,32.34 C382.68,32.34 396.62,52.65 396.62,69.81 C396.62,75.96 394.06,78.96 388.12,78.96 L346.66,78.95 Z M377.14,65.22 C376.06,56.22 370.67,49.49 361.63,49.49 C353,49.49 347.2,56.49 346.26,65.22 L377.14,65.22 Z" id="Shape" fill="url(#linearGradient-1)"></path>
                    <path d="M403.16,43.48 C403.023442,40.7610808 404.022854,38.107679 405.919188,36.1544546 C407.815523,34.2012302 410.438233,33.1238465 413.16,33.18 C418.28,33.18 422.6,35.18 422.6,41.76 L422.87,41.76 C426.51,36.04 430.42,33.18 436.49,33.18 C441.21,33.18 445.93,36.76 445.93,44.18 C445.93,50.9 440.13,51.33 434.33,54.18 C428.53,57.03 422.6,59.76 422.6,67.91 L422.6,99.52 C422.6,106.38 418.6,110.96 412.89,110.96 C407.18,110.96 403.18,106.38 403.18,99.52 L403.16,43.48 Z" id="Shape" fill="url(#linearGradient-1)"></path>
                    <path d="M468.72,13.59 C468.72,20.03 463.87,25.46 457.8,25.46 C452,25.46 446.87,19.88 446.87,13.59 C446.87,7.72 451.99,2.29 457.8,2.29 C463.61,2.29 468.72,7.58 468.72,13.59 Z M448.09,44.59 C448.09,37.73 452.09,33.15 457.8,33.15 C463.51,33.15 467.51,37.73 467.51,44.59 L467.51,99.51 C467.51,106.37 463.51,110.95 457.8,110.95 C452.09,110.95 448.09,106.37 448.09,99.51 L448.09,44.59 Z" id="Shape" fill="url(#linearGradient-1)"></path>
                    <path d="M482.72,52.06 L478.4,52.06 C473.14,52.06 469.9,48.63 469.9,43.06 C469.9,37.91 473.54,34.06 478.4,34.06 L482.72,34.06 L482.72,23.46 C482.72,8.3 491.22,0 503.09,0 C509.97,0 516.58,2.15 516.58,9.3 C516.58,15.3 514.02,18.02 508.58,18.02 C505.34,18.02 502.11,18.02 502.11,25.6 L502.11,34.04 L508.18,34.04 C513.98,34.04 518.03,36.47 518.03,43.04 C518.03,49.61 513.85,52.04 508.18,52.04 L502.11,52.04 L502.11,99.52 C502.11,106.38 498.11,110.96 492.4,110.96 C486.69,110.96 482.72,106.41 482.72,99.54 L482.72,52.06 Z" id="Shape" fill="url(#linearGradient-1)"></path>
                    <path d="M542.31,13.59 C542.31,20.03 537.45,25.46 531.39,25.46 C525.59,25.46 520.46,19.88 520.46,13.59 C520.46,7.72 525.59,2.29 531.39,2.29 C537.19,2.29 542.31,7.58 542.31,13.59 Z M521.72,44.62 C521.72,37.76 525.72,33.18 531.43,33.18 C537.14,33.18 541.14,37.76 541.14,44.62 L541.14,99.54 C541.14,106.4 537.14,110.98 531.43,110.98 C525.72,110.98 521.72,106.41 521.72,99.54 L521.72,44.62 Z" id="Shape" fill="url(#linearGradient-1)"></path>
                    <path d="M567.53,78.95 C568.88,89.11 576.84,93.83 585.87,93.83 C595.87,93.83 602.73,85.53 607.87,85.53 C612.05,85.53 615.87,89.96 615.87,94.4 C615.87,103.27 598.61,111.85 584.17,111.85 C562.27,111.84 547.72,94.95 547.72,72.23 C547.72,51.35 562.02,32.33 582.52,32.33 C603.52,32.33 617.45,52.64 617.45,69.8 C617.45,75.95 614.89,78.95 608.95,78.95 L567.53,78.95 Z M598.01,65.22 C596.93,56.22 591.54,49.49 582.5,49.49 C573.87,49.49 568.07,56.49 567.12,65.22 L598.01,65.22 Z" id="Shape" fill="url(#linearGradient-1)"></path>
                    <path d="M718.72,109.11 C718.72,107.292983 720.192983,105.82 722.01,105.82 C723.827017,105.82 725.3,107.292983 725.3,109.11 C725.3,110.927017 723.827017,112.4 722.01,112.4 C720.192983,112.4 718.72,110.927017 718.72,109.11 Z" id="Shape" fill="#FFFFFF"></path>
                    <path d="M708.63,86.66 C708.63,88.17 707.45,89.52 707.45,91.46 C707.45,94.91 710.52,96.56 713.64,96.56 C716.76,96.56 719.75,94.75 719.75,91.46 C719.75,89.95 718.49,87.67 718.49,86.95 C718.517169,85.5043669 719.694121,84.3451804 721.14,84.34 C724.26,84.34 725.31,89.56 725.31,91.75 C725.31,98.28 719.96,102.62 713.64,102.62 C707.49,102.62 701.88,98.16 701.88,91.75 C701.88,89.35 702.76,84.34 705.71,84.34 C706.99,84.35 708.63,85.23 708.63,86.66 Z" id="Shape" fill="#FFFFFF"></path>
                    <path d="M713.64,61.39 C719.96,61.39 725.31,65.73 725.31,72.26 C725.31,78.79 719.96,83.13 713.64,83.13 C707.49,83.13 701.88,78.67 701.88,72.26 C701.88,65.85 707.49,61.39 713.64,61.39 Z M713.64,77.06 C716.54,77.06 719.75,75.54 719.75,72.26 C719.75,68.98 716.55,67.46 713.64,67.46 C710.73,67.46 707.45,68.94 707.45,72.26 C707.45,75.58 710.72,77.06 713.64,77.06 Z" id="Shape" fill="#FFFFFF"></path>
                    <path d="M705.51,58.81 C704.656562,58.8969971 703.805797,58.6217545 703.165044,58.0513508 C702.52429,57.4809472 702.152398,56.6677713 702.14,55.81 C702.011646,54.4192621 703.021681,53.1823036 704.41,53.03 C702.799374,51.5979771 701.878528,49.5451805 701.88,47.39 C701.845946,44.9274627 702.985836,42.5957011 704.95,41.11 C703.103819,39.474993 701.996676,37.1633348 701.88,34.7 C701.88,29.77 704.75,26.4 710.05,26.4 L721.72,26.4 C723.396184,26.4 724.755,27.7588158 724.755,29.435 C724.755,31.1111842 723.396184,32.47 721.72,32.47 L711.12,32.47 C708.68,32.47 706.95,33.82 706.95,36.01 C706.95,38.2 708.68,39.59 711.12,39.59 L721.72,39.59 C723.396184,39.59 724.755,40.9488158 724.755,42.625 C724.755,44.3011842 723.396184,45.66 721.72,45.66 L711.12,45.66 C708.68,45.66 706.95,47.01 706.95,49.2 C706.95,51.69 708.68,52.78 711.12,52.78 L721.72,52.78 C723.393423,52.78 724.75,54.1365772 724.75,55.81 C724.75,57.4834228 723.393423,58.84 721.72,58.84 L705.51,58.81 Z" id="Shape" fill="#FFFFFF"></path>
                    <path d="M680.95,0 C675.29,0 671.24,4.58 671.24,11.44 L671.24,39.44 C666.184456,34.8176791 659.569987,32.2747516 652.72,32.32 C631.81,32.32 621.43,53.06 621.43,73.08 C621.43,92.53 633.84,111.84 653.43,111.84 C660.04,111.84 667.59,108.69 671.23,102.4 C672.44,107.84 675.54,110.98 680.94,110.98 C686.6,110.98 690.65,106.4 690.65,99.54 L690.65,11.44 C690.66,4.58 686.61,0 680.95,0 Z M664.48,72.83 L670.83,89.67 L656.01,78.95 L641.19,89.66 L647.54,72.83 L634.54,63.46 L651.04,63.46 L655.98,50.36 L660.92,63.46 L677.42,63.46 L664.48,72.83 Z" id="Shape" fill="url(#linearGradient-1)"></path>
                    <polygon id="Shape" fill="#FFFFFF" points="743.28 2.32 743.28 4.37 739.82 4.37 739.82 13.95 737.38 13.95 737.38 4.38 733.9 4.38 733.9 2.32"></polygon>
                    <path d="M752.39,2.32 L755.88,2.32 L755.88,13.95 L753.62,13.95 L753.62,6.07 L753.62,5.12 L753.62,4.18 L751.43,13.95 L749.08,13.95 L746.9,4.22 L746.9,5.16 L746.9,6.11 L746.9,13.95 L744.64,13.95 L744.64,2.32 L748.16,2.32 L750.27,11.43 L752.39,2.32 Z" id="Shape" fill="#FFFFFF"></path>
                </g>
            </g>
        </g>
    </g>
</svg>
