<?xml version="1.0" encoding="UTF-8"?>
<svg width="180px" height="27px" viewBox="0 0 180 27" version="1.1" xmlns="http://www.w3.org/2000/svg" xmlns:xlink="http://www.w3.org/1999/xlink">
    <!-- Generator: Sketch 54.1 (76490) - https://sketchapp.com -->
    <title>BV-Logo</title>
    <desc>Created with Sketch.</desc>
    <defs>
        <linearGradient x1="50%" y1="0%" x2="50%" y2="100%" id="linearGradient-1">
            <stop stop-color="#6AA643" offset="0%"></stop>
            <stop stop-color="#7DB24A" offset="96.7932876%"></stop>
        </linearGradient>
        <linearGradient x1="50%" y1="0%" x2="50%" y2="100%" id="linearGradient-2">
            <stop stop-color="#6AA643" offset="0%"></stop>
            <stop stop-color="#7DB24A" offset="96.7932876%"></stop>
        </linearGradient>
        <linearGradient x1="50%" y1="0%" x2="50%" y2="100%" id="linearGradient-3">
            <stop stop-color="#6AA643" offset="0%"></stop>
            <stop stop-color="#7DB24A" offset="96.7932876%"></stop>
        </linearGradient>
        <linearGradient x1="50%" y1="0%" x2="50%" y2="100%" id="linearGradient-4">
            <stop stop-color="#6AA643" offset="0%"></stop>
            <stop stop-color="#7DB24A" offset="96.7932876%"></stop>
        </linearGradient>
        <linearGradient x1="50%" y1="0%" x2="50%" y2="100%" id="linearGradient-5">
            <stop stop-color="#6AA643" offset="0%"></stop>
            <stop stop-color="#7DB24A" offset="96.7932876%"></stop>
        </linearGradient>
        <linearGradient x1="50%" y1="0%" x2="50%" y2="100%" id="linearGradient-6">
            <stop stop-color="#6AA643" offset="0%"></stop>
            <stop stop-color="#7DB24A" offset="96.7932876%"></stop>
        </linearGradient>
        <linearGradient x1="50%" y1="0%" x2="50%" y2="96.7932876%" id="linearGradient-7">
            <stop stop-color="#6AA643" offset="0%"></stop>
            <stop stop-color="#7DB24A" offset="100%"></stop>
        </linearGradient>
    </defs>
    <g id="Page-1" stroke="none" stroke-width="1" fill="none" fill-rule="evenodd">
        <g id="BV-Phone-S6-V2" transform="translate(-150.000000, -21.000000)">
            <g id="BV-Logo" transform="translate(150.000000, 21.000000)">
                <path d="M2.80917293,23.580945 L6.78496241,23.580945 C9.54631579,23.580945 11.5700752,21.775995 11.5700752,19.092645 C11.5700752,16.623045 9.87969925,14.652045 6.90406015,14.652045 L2.78526316,14.652045 L2.78526316,23.580945 L2.80917293,23.580945 Z M2.80917293,12.205845 L6.02300752,12.205845 C8.4275188,12.205845 9.80842105,10.496295 9.80842105,8.311545 C9.80842105,6.126795 8.61789474,4.583295 6.11819549,4.583295 L2.80917293,4.583295 L2.80917293,12.205845 Z M0,3.609495 C0,2.683395 0.452481203,1.971045 1.5,1.971045 L6.47548872,1.971045 C10.5225564,1.971045 12.6415038,4.986945 12.6415038,7.741395 C12.6415038,10.401345 11.3318797,12.419595 9.45112782,13.036995 L9.45112782,13.108545 C12.2129323,13.417245 14.4031579,15.886845 14.4031579,19.092645 C14.4031579,22.892445 11.7365414,26.145495 6.9275188,26.145495 L1.5,26.145495 C0.428571429,26.145495 0,25.433145 0,24.507045 L0,3.609495 Z" id="Fill-1" fill="#000000"></path>
                <path d="M27.5205564,16.05312 C27.5205564,13.46472 26.1157444,10.47267 22.9970977,10.47267 C19.4976992,10.33002 18.2358947,13.29822 18.1407068,16.05312 L27.5205564,16.05312 Z M18.1407068,18.28557 C18.1407068,21.37257 19.9975489,23.79492 23.1879248,23.79492 C26.9489774,23.79492 27.9013083,21.34872 28.9727368,21.34872 C29.4964962,21.34872 29.9963459,21.82347 29.9963459,22.67847 C29.9963459,24.12702 26.4969474,26.38332 23.164015,26.38332 C17.7121353,26.38332 15.3315338,21.94227 15.3315338,17.14527 C15.3315338,12.25377 18.211985,7.90767 22.9970977,7.90767 C27.6635639,7.90767 30.3536391,12.34872 30.3536391,16.69437 C30.3536391,17.73927 29.9963459,18.28557 28.7823609,18.28557 L18.1407068,18.28557 L18.1407068,18.28557 Z" id="Fill-3" fill="#000000"></path>
                <path d="M43.3282105,16.05312 C43.3282105,13.46472 41.9233985,10.47267 38.8047519,10.47267 C35.3053534,10.33002 34.0435489,13.29822 33.9483609,16.05312 L43.3282105,16.05312 Z M33.9483609,18.28557 C33.9483609,21.37257 35.805203,23.79492 38.9955789,23.79492 C42.7566316,23.79492 43.7089624,21.34872 44.780391,21.34872 C45.3041504,21.34872 45.804,21.82347 45.804,22.67847 C45.804,24.12702 42.3046015,26.38332 38.9716692,26.38332 C33.5197895,26.38332 31.139188,21.94227 31.139188,17.14527 C31.1152782,12.25377 34.0196391,7.88427 38.7812932,7.88427 C43.4473083,7.88427 46.1373835,12.32487 46.1373835,16.67052 C46.1373835,17.71542 45.7800902,18.26172 44.5661053,18.26172 L33.9483609,18.26172 L33.9483609,18.28557 Z" id="Fill-5" fill="#000000"></path>
                <path d="M47.4943759,9.49887 C47.4943759,8.52507 48.0420451,7.90767 48.899188,7.90767 C49.7558797,7.90767 50.3035489,8.52507 50.3035489,9.49887 L50.3035489,10.21122 L50.3748271,10.28232 C51.6366316,8.57277 53.3982857,7.90767 55.0886617,7.90767 C57.7313684,7.90767 61.040391,9.66492 61.040391,14.77062 L61.040391,24.79212 C61.040391,25.76547 60.4927218,26.38332 59.6355789,26.38332 C58.7788872,26.38332 58.231218,25.76547 58.231218,24.79212 L58.231218,14.91327 C58.231218,11.75472 56.1361805,10.47267 54.2793383,10.47267 C52.4224962,10.47267 50.3274586,11.75472 50.3274586,14.91327 L50.3274586,24.76827 C50.3274586,25.74207 49.7797895,26.35947 48.9226466,26.35947 C48.0655038,26.35947 47.5182857,25.74207 47.5182857,24.76827 L47.5182857,9.49887 L47.4943759,9.49887 Z" id="Fill-7" fill="#000000"></path>
                <path d="M61.2308571,5.485635 C61.064391,5.034285 61.0165714,4.702185 61.0165714,4.226985 C61.0165714,2.802285 62.2070977,1.781235 63.4923609,1.781235 C64.5876992,1.781235 65.254015,2.517435 65.6825865,3.443535 L70.6585263,17.573085 L75.634015,3.443535 C76.0625865,2.517435 76.7289023,1.781235 77.8242406,1.781235 C79.1095038,1.781235 80.3000301,2.802285 80.3000301,4.226985 C80.3000301,4.702185 80.2287519,5.034285 80.0857444,5.485635 L73.0625865,24.412185 C72.6344662,25.504335 72.1107068,26.383185 70.681985,26.383185 C69.2776241,26.383185 68.7299549,25.504335 68.3013835,24.412185 L61.2308571,5.485635 Z" id="Fill-9" fill="url(#linearGradient-1)"></path>
                <path d="M89.7750677,15.50691 C89.5134135,13.36986 88.2276992,11.77866 86.0848421,11.77866 C84.0376241,11.77866 82.6567218,13.44096 82.4189774,15.50691 L89.7750677,15.50691 Z M82.5141654,18.76041 C82.8236391,21.18231 84.7278496,22.29876 86.8707068,22.29876 C89.2513083,22.29876 90.8938647,20.32776 92.1083008,20.32776 C93.108,20.32776 94.0125113,21.37266 94.0125113,22.44096 C94.0125113,24.55461 89.8941654,26.57331 86.4660451,26.57331 C81.2762707,26.57331 77.8003308,22.55976 77.8003308,17.16921 C77.8003308,12.20616 81.2045414,7.69401 86.0848421,7.69401 C91.0842406,7.69401 94.3937143,12.51486 94.3937143,16.59951 C94.3937143,18.04806 93.7747669,18.78381 92.3699549,18.78381 L82.5141654,18.78381 L82.5141654,18.76041 Z" id="Fill-11" fill="url(#linearGradient-2)"></path>
                <path d="M95.964812,10.33002 C95.964812,8.69157 97.178797,7.88427 98.3454135,7.88427 C99.5593985,7.88427 100.583459,8.35902 100.583459,9.92637 L100.654737,9.92637 C101.51188,8.57277 102.464211,7.88427 103.892481,7.88427 C105.011278,7.88427 106.130075,8.73882 106.130075,10.49607 C106.130075,12.08727 104.749624,12.20607 103.368722,12.87117 C101.98782,13.55967 100.583459,14.20092 100.583459,16.12422 L100.583459,23.62842 C100.583459,25.26687 99.6311278,26.33562 98.2741353,26.33562 C96.9171429,26.33562 95.964812,25.24347 95.964812,23.62842 L95.964812,10.33002 Z" id="Fill-13" fill="url(#linearGradient-3)"></path>
                <path d="M106.654015,10.615005 C106.654015,8.976555 107.606346,7.907805 108.963338,7.907805 C110.320331,7.907805 111.272662,9.000405 111.272662,10.615005 L111.272662,23.652405 C111.272662,25.290855 110.320331,26.359605 108.963338,26.359605 C107.606346,26.359605 106.654015,25.267005 106.654015,23.652405 L106.654015,10.615005 Z M111.582135,3.253455 C111.582135,4.773105 110.415519,6.079455 108.987248,6.079455 C107.606346,6.079455 106.39191,4.749255 106.39191,3.253455 C106.39191,1.852155 107.606346,0.570105 108.987248,0.570105 C110.367699,0.570105 111.582135,1.804905 111.582135,3.253455 L111.582135,3.253455 Z" id="Fill-15" fill="url(#linearGradient-4)"></path>
                <path d="M114.914977,12.3723 L113.891368,12.3723 C112.629564,12.3723 111.867609,11.565 111.867609,10.23525 C111.867609,9.02385 112.724752,8.09775 113.891368,8.09775 L114.914977,8.09775 L114.914977,5.58045 C114.914977,1.971 116.938737,0 119.771368,0 C121.414376,0 122.985654,0.4986 122.985654,2.2086 C122.985654,3.6333 122.366707,4.27455 121.080992,4.27455 C120.319038,4.27455 119.533624,4.27455 119.533624,6.0795 L119.533624,8.0739 L120.985805,8.0739 C122.366256,8.0739 123.318586,8.64405 123.318586,10.2114 C123.318586,11.73105 122.318887,12.34845 120.985805,12.34845 L119.533624,12.34845 L119.533624,23.6286 C119.533624,25.26705 118.581293,26.3358 117.224301,26.3358 C115.867308,26.3358 114.914977,25.2432 114.914977,23.6286 L114.914977,12.3723 Z" id="Fill-17" fill="url(#linearGradient-5)"></path>
                <path d="M124.199594,10.615005 C124.199594,8.976555 125.151925,7.907805 126.508917,7.907805 C127.86591,7.907805 128.818241,9.000405 128.818241,10.615005 L128.818241,23.652405 C128.818241,25.290855 127.86591,26.359605 126.508917,26.359605 C125.151925,26.359605 124.199594,25.267005 124.199594,23.652405 L124.199594,10.615005 Z M129.103805,3.253455 C129.103805,4.773105 127.937188,6.079455 126.508917,6.079455 C125.128015,6.079455 123.91403,4.749255 123.91403,3.253455 C123.91403,1.852155 125.128015,0.570105 126.508917,0.570105 C127.88982,0.570105 129.103805,1.804905 129.103805,3.253455 L129.103805,3.253455 Z" id="Fill-19" fill="url(#linearGradient-6)"></path>
                <path d="M142.364075,15.50691 C142.102421,13.36986 140.816707,11.77866 138.67385,11.77866 C136.626632,11.77866 135.245729,13.44096 135.007985,15.50691 L142.364075,15.50691 Z M135.103173,18.76041 C135.412647,21.18231 137.316857,22.29876 139.459714,22.29876 C141.840316,22.29876 143.482872,20.32776 144.697308,20.32776 C145.697008,20.32776 146.601519,21.37266 146.601519,22.44096 C146.601519,24.55461 142.483173,26.57331 139.055053,26.57331 C133.865278,26.57331 130.389338,22.55976 130.389338,17.16921 C130.389338,12.20616 133.793549,7.69401 138.67385,7.69401 C143.673248,7.69401 146.982722,12.51486 146.982722,16.59951 C146.982722,18.04806 146.363774,18.78381 144.958962,18.78381 L135.103173,18.78381 L135.103173,18.76041 Z" id="Fill-21" fill="url(#linearGradient-2)"></path>
                <path d="M171.098797,25.931925 C171.098797,25.504425 171.45609,25.148475 171.884211,25.148475 C172.312782,25.148475 172.670075,25.504425 172.670075,25.931925 C172.670075,26.359425 172.312782,26.715375 171.884211,26.715375 C171.45609,26.715375 171.098797,26.359425 171.098797,25.931925" id="Fill-23" fill="#000000"></path>
                <path d="M168.694331,20.588805 C168.694331,20.945205 168.408767,21.277305 168.408767,21.728655 C168.408767,22.559805 169.146812,22.939605 169.884857,22.939605 C170.598992,22.939605 171.337038,22.512105 171.337038,21.728655 C171.337038,21.372255 171.027564,20.826405 171.027564,20.659905 C171.027564,20.327805 171.313128,20.042505 171.66997,20.042505 C172.408015,20.042505 172.67012,21.277305 172.67012,21.799755 C172.67012,23.343255 171.384406,24.388155 169.884857,24.388155 C168.408767,24.388155 167.075684,23.319855 167.075684,21.799755 C167.075684,21.230055 167.28997,20.042505 167.980195,20.042505 C168.313579,20.042505 168.694331,20.256255 168.694331,20.588805" id="Fill-25" fill="#000000"></path>
                <path d="M169.884632,18.309105 C170.574857,18.309105 171.336812,17.952705 171.336812,17.169255 C171.336812,16.385355 170.574857,16.029405 169.884632,16.029405 C169.194406,16.029405 168.408541,16.385355 168.408541,17.169255 C168.408541,17.952705 169.194406,18.309105 169.884632,18.309105 M169.884632,14.580855 C171.384632,14.580855 172.669895,15.601905 172.669895,17.169255 C172.669895,18.712755 171.384632,19.757655 169.884632,19.757655 C168.408541,19.757655 167.075459,18.688905 167.075459,17.169255 C167.099368,15.649605 168.432451,14.580855 169.884632,14.580855" id="Fill-27" fill="#000000"></path>
                <path d="M167.956286,13.987125 C167.480346,13.987125 167.146962,13.678425 167.146962,13.274775 C167.146962,12.894975 167.337338,12.657375 167.69418,12.609675 C167.313429,12.253725 167.099143,11.802375 167.099143,11.279925 C167.099143,10.686375 167.361248,10.163925 167.837188,9.783675 C167.384707,9.380025 167.099143,8.762625 167.099143,8.264025 C167.099143,7.100325 167.78982,6.293025 169.051173,6.293025 L171.812977,6.293025 C172.288917,6.293025 172.622301,6.601725 172.622301,7.005375 C172.622301,7.432875 172.312827,7.717725 171.812977,7.717725 L169.289368,7.717725 C168.718241,7.717725 168.289669,8.026425 168.289669,8.548875 C168.289669,9.071325 168.694331,9.403875 169.289368,9.403875 L171.812977,9.403875 C172.288917,9.403875 172.622301,9.712575 172.622301,10.116225 C172.622301,10.543725 172.312827,10.828575 171.812977,10.828575 L169.289368,10.828575 C168.718241,10.828575 168.289669,11.137275 168.289669,11.659725 C168.289669,12.253725 168.694331,12.514725 169.289368,12.514725 L171.812977,12.514725 C172.288917,12.514725 172.622301,12.823425 172.622301,13.227075 C172.622301,13.654575 172.312827,13.939425 171.812977,13.939425 L167.956286,13.939425 L167.956286,13.987125 Z" id="Fill-29" fill="#000000"></path>
                <path d="M158.195549,17.311725 L159.695549,21.301425 L156.171789,18.760275 L152.648481,21.301425 L154.148481,17.311725 L151.053744,15.079275 L154.981714,15.079275 L156.148331,11.968425 L157.314496,15.079275 L161.242917,15.079275 L158.195549,17.311725 Z M162.10006,0.0236250004 C160.743068,0.0236250004 159.790737,1.116225 159.790737,2.730825 L159.790737,9.380025 C158.576301,8.264025 157.005023,7.670475 155.386376,7.670475 C150.410887,7.670475 147.934647,12.585825 147.934647,17.359425 C147.934647,21.989925 150.886827,26.573175 155.552842,26.573175 C157.12412,26.573175 158.933594,25.836975 159.790737,24.340725 C160.076301,25.623225 160.814346,26.383275 162.10006,26.383275 C163.457053,26.383275 164.408932,25.290675 164.408932,23.676075 L164.408932,2.730825 C164.408932,1.092375 163.457053,0.0236250004 162.10006,0.0236250004 L162.10006,0.0236250004 Z" id="Fill-31" fill="url(#linearGradient-7)"></path>
                <polygon id="Fill-33" fill="#000000" points="176.955248 0.569925 176.955248 1.068525 176.122015 1.068525 176.122015 3.324375 175.550436 3.324375 175.550436 1.068525 174.717203 1.068525 174.717203 0.569925"></polygon>
                <polygon id="Fill-35" fill="#000000" points="179.121654 0.569925 179.954887 0.569925 179.954887 3.324375 179.407218 3.324375 179.407218 1.472175 179.407218 1.258425 179.407218 1.044675 178.883459 3.348225 178.312331 3.348225 177.812481 0.997425 177.812481 1.211175 177.812481 1.424925 177.812481 3.277125 177.264812 3.277125 177.264812 0.569925 178.098045 0.569925 178.597895 2.730825"></polygon>
            </g>
        </g>
    </g>
</svg>