<?xml version="1.0" encoding="utf-8"?>
<!-- Generator: Adobe Illustrator 19.2.1, SVG Export Plug-In . SVG Version: 6.00 Build 0)  -->
<svg version="1.1" id="Layer_1" xmlns="http://www.w3.org/2000/svg" xmlns:xlink="http://www.w3.org/1999/xlink" x="0px" y="0px"
	 viewBox="0 0 17 16" style="enable-background:new 0 0 17 16;" xml:space="preserve">
<style type="text/css">
	.st0{fill:#E7114C;}
</style>
<g>
	<path class="st0" d="M6.91,8.25V6.75c0-0.6-0.48-1.09-1.06-1.09H5.17C5.12,5.58,5.07,5.5,5,5.43c-0.39-0.4-1.11-0.4-1.5,0
		C3.43,5.5,3.38,5.58,3.34,5.66H2.66c-0.59,0-1.06,0.49-1.06,1.09v1.51C0.62,9.05,0,10.27,0,11.65C0,14.05,1.91,16,4.25,16
		s4.25-1.95,4.25-4.35C8.5,10.27,7.88,9.05,6.91,8.25L6.91,8.25z M4.25,13.82c-1.17,0-2.13-0.98-2.13-2.18s0.95-2.18,2.13-2.18
		s2.13,0.98,2.13,2.18C6.38,12.85,5.42,13.82,4.25,13.82z"/>
	<path class="st0" d="M15.76,3.12c-0.95-0.97-2.23-1.38-3.47-1.25l-1.04-1.06c-0.41-0.43-1.09-0.43-1.5,0L9.24,1.34
		C8.9,1.27,8.53,1.37,8.28,1.62c-0.2,0.2-0.31,0.48-0.31,0.77c0,0.07,0.01,0.15,0.02,0.22l-0.5,0.51c-0.42,0.43-0.42,1.11,0,1.54
		l1.04,1.06C8.4,6.99,8.8,8.31,9.75,9.28c0.83,0.85,1.92,1.27,3.01,1.27s2.18-0.42,3.01-1.27C17.41,7.58,17.41,4.82,15.76,3.12
		L15.76,3.12z M14.25,7.74c-0.83,0.85-2.18,0.85-3.01,0c-0.83-0.85-0.83-2.23,0-3.08l0,0c0.41-0.42,0.96-0.64,1.5-0.64
		c0.54,0,1.09,0.21,1.5,0.64C15.08,5.51,15.08,6.89,14.25,7.74z"/>
	<path class="st0" d="M6.48,2.18c0.06,0,0.13-0.01,0.19-0.02c0.57-0.1,0.96-0.67,0.86-1.26C7.43,0.3,6.88-0.09,6.3,0.02
		c-0.58,0.1-0.96,0.67-0.86,1.26C5.53,1.81,5.98,2.18,6.48,2.18L6.48,2.18z"/>
	<path class="st0" d="M4.15,4.15c0.09,0.02,0.16,0.03,0.24,0.03c0.48,0,0.92-0.34,1.04-0.84c0.13-0.58-0.22-1.17-0.79-1.3
		C4.06,1.9,3.49,2.26,3.36,2.84C3.23,3.43,3.59,4.01,4.15,4.15L4.15,4.15z"/>
</g>
</svg>
