<?xml version="1.0" encoding="UTF-8"?>
<svg width="50px" height="50px" viewBox="0 0 50 50" version="1.1" xmlns="http://www.w3.org/2000/svg" xmlns:xlink="http://www.w3.org/1999/xlink">
    <!-- Generator: Sketch 54.1 (76490) - https://sketchapp.com -->
    <title>icn_img_linkedin</title>
    <desc>Created with Sketch.</desc>
    <g id="Page-1" stroke="none" stroke-width="1" fill="none" fill-rule="evenodd">
        <g id="BV-Phone-S1B-V2" transform="translate(-477.000000, -257.000000)" fill-rule="nonzero">
            <g id="Content" transform="translate(247.000000, 149.000000)">
                <g id="Left-content" transform="translate(35.000000, 30.000000)">
                    <g id="Ovals" transform="translate(15.000000, 78.000000)">
                        <g id="icn_img_linkedin" transform="translate(180.000000, 0.000000)">
                            <path d="M24.9996515,50 L24.9996515,50 C18.3692109,50 12.0103461,47.3660567 7.32198192,42.6776272 C2.63361779,37.9891977 -0.000184882486,31.6303481 0,25 L0,25 C-0.000184882486,18.3696519 2.63361779,12.0108023 7.32198192,7.32237275 C12.0103461,2.63394325 18.3692109,-2.57755995e-09 24.9996515,0 L24.9996515,0 C38.8069627,0 50,11.1928813 50,25 L50,25 C50,38.8071187 38.8069627,50 24.9996515,50 Z" id="Path_2181" fill="#117BB8"></path>
                            <g id="Group_996" transform="translate(13.000000, 12.000000)" fill="#FFFFFF">
                                <g id="Group_995">
                                    <rect id="Rectangle_31" x="0.757248869" y="8.7669" width="5.10472398" height="16.6756091"></rect>
                                    <path d="M3.28553846,6.58317273 C4.5186982,6.59331745 5.63602302,5.85000259 6.11490092,4.70090255 C6.59377883,3.5518025 6.33954232,2.22407841 5.47110671,1.33875336 C4.60267111,0.453428316 3.29171407,0.185518787 2.15141616,0.660335453 C1.01111825,1.13515212 0.266900541,2.25883031 0.266859729,3.50578636 C0.260388745,5.19831463 1.61168391,6.57588994 3.28553846,6.58317273 L3.28553846,6.58317273 Z" id="Path_2182"></path>
                                </g>
                                <path d="M14.0225158,16.6909091 C14.0225158,14.3472273 15.0899548,12.9500591 17.1333575,12.9500591 C19.0103167,12.9500591 19.912,14.2908955 19.912,16.6909091 L19.912,25.4445955 L24.9933394,25.4445955 L24.9933394,14.8827273 C24.9933394,10.4165182 22.4891222,8.25643636 18.9924344,8.25643636 C16.9720747,8.2281243 15.0852878,9.27418483 14.0225158,11.0118273 L14.0225158,8.76550909 L9.12550226,8.76550909 L9.12550226,25.4411182 L14.0225158,25.4411182 L14.0225158,16.6909091 Z" id="Path_2183"></path>
                            </g>
                        </g>
                    </g>
                </g>
            </g>
        </g>
    </g>
</svg>