<?xml version="1.0" encoding="UTF-8"?>
<svg width="50px" height="50px" viewBox="0 0 50 50" version="1.1" xmlns="http://www.w3.org/2000/svg" xmlns:xlink="http://www.w3.org/1999/xlink">
    <!-- Generator: Sketch 54.1 (76490) - https://sketchapp.com -->
    <title>icn_img_blogger</title>
    <desc>Created with Sketch.</desc>
    <g id="Page-1" stroke="none" stroke-width="1" fill="none" fill-rule="evenodd">
        <g id="BV-Phone-S1B-V2" transform="translate(-357.000000, -452.000000)">
            <g id="Content" transform="translate(247.000000, 149.000000)">
                <g id="Left-content" transform="translate(35.000000, 30.000000)">
                    <g id="Ovals" transform="translate(15.000000, 78.000000)">
                        <g id="icn_img_blogger" transform="translate(60.000000, 195.000000)">
                            <rect id="Rectangle_34-2" fill="#F9A021" fill-rule="nonzero" x="0" y="0" width="50" height="50" rx="25"></rect>
                            <path d="M38.0531412,21.9839172 C37.4774945,21.7369531 35.0101441,22.0112817 34.3244272,21.3894247 C33.8403917,20.9413319 33.8096268,20.1299762 33.620935,19.0490807 C33.5158708,18.0363913 33.2538502,17.04625 32.8442905,16.1142441 C31.6478751,13.5727714 28.7798965,11.3938776 26.1751293,11.3938776 L20.1349409,11.3938776 C15.3697911,11.4107935 11.5125493,15.2748258 11.5009239,20.0430941 L11.5009239,30.1275757 C11.5155742,34.8912317 15.3723272,38.748662 20.1328899,38.7610576 L30.0542498,38.7610576 C34.8106395,38.7401197 38.662751,34.8897727 38.6889505,30.1303121 L38.7436438,23.1455379 C38.7436928,22.6609431 38.4787166,22.2151783 38.0531412,21.9839172 Z M20.2450111,18.4641657 L25.0306726,18.4641657 C25.9413914,18.4641657 26.6796748,19.2029299 26.6796748,20.1142416 C26.6796748,21.0255534 25.9413914,21.7643176 25.0306726,21.7643176 L20.2450111,21.7643176 C19.3342923,21.7643176 18.5960089,21.0255534 18.5960089,20.1142416 C18.5960089,19.2029299 19.3342923,18.4641657 20.2450111,18.4641657 Z M29.9728936,31.6463023 L20.2429601,31.6463023 C19.647423,31.6584533 19.0918532,31.3474828 18.790524,30.8333267 C18.4891948,30.3191706 18.4891948,29.6821756 18.790524,29.1680195 C19.0918532,28.6538633 19.647423,28.3428928 20.2429601,28.3550438 L29.9728936,28.3550438 C30.5684306,28.3428928 31.1240005,28.6538633 31.4253297,29.1680195 C31.7266588,29.6821756 31.7266588,30.3191706 31.4253297,30.8333267 C31.1240005,31.3474828 30.5684306,31.6584533 29.9728936,31.6463023 Z" id="Path_2198" fill="#FFFFFF"></path>
                        </g>
                    </g>
                </g>
            </g>
        </g>
    </g>
</svg>