<?xml version="1.0" encoding="UTF-8"?>
<svg width="50px" height="50px" viewBox="0 0 50 50" version="1.1" xmlns="http://www.w3.org/2000/svg" xmlns:xlink="http://www.w3.org/1999/xlink">
    <!-- Generator: Sketch 54.1 (76490) - https://sketchapp.com -->
    <title>icn_img_tinder</title>
    <desc>Created with Sketch.</desc>
    <defs>
        <linearGradient x1="14.5980258%" y1="85.4%" x2="85.4019742%" y2="14.6%" id="linearGradient-1">
            <stop stop-color="#DF4685" offset="0.1%"></stop>
            <stop stop-color="#FF8644" offset="100%"></stop>
        </linearGradient>
    </defs>
    <g id="Page-1" stroke="none" stroke-width="1" fill="none" fill-rule="evenodd">
        <g id="BV-Phone-S1B-V2" transform="translate(-417.000000, -387.000000)" fill-rule="nonzero">
            <g id="Content" transform="translate(247.000000, 149.000000)">
                <g id="Left-content" transform="translate(35.000000, 30.000000)">
                    <g id="Ovals" transform="translate(15.000000, 78.000000)">
                        <g id="icn_img_tinder" transform="translate(120.000000, 130.000000)">
                            <path d="M24.9996515,50 L24.9996515,50 C11.1927252,50 0,38.8075869 0,25.0010456 L0,25.0010456 C-0.000369767549,18.370605 2.63332903,12.0115933 7.32169317,7.32296773 C12.0100573,2.63434214 18.369026,0.000184867021 24.9996515,0 L24.9996515,0 C38.8069627,0 50,11.1927252 50,24.9996515 L50,24.9996515 C50.0003698,31.6301487 47.366553,37.9891944 42.6780181,42.6777293 C37.9894832,47.3662643 31.6303336,50.0001849 24.9996515,50 Z" id="Path_2195" fill="url(#linearGradient-1)"></path>
                            <path d="M17.1132492,36.4168182 C13.97659,33.2463636 14.3485042,28.0468182 18.1168708,22.3488636 C18.7931202,21.3249901 19.532206,20.3437997 20.3298974,19.4109091 L21.0094614,18.6138636 L21.0778279,19.3256818 C21.1114971,20.1653535 21.3149726,20.989579 21.6760356,21.7488636 C21.8642997,22.131178 22.1085337,22.483441 22.4007215,22.7940909 C22.5176284,22.8990909 22.4629351,22.9590909 23.0570408,22.6577273 C26.9717119,20.5270455 27.3757585,17.0497727 27.1549344,14.06 C27.0790031,13.186085 26.9077585,12.323031 26.6442359,11.4861364 C26.5739821,11.333166 26.5340522,11.1680902 26.5266454,11 C26.5546757,11.0088636 27.0428132,11.4684091 27.6102559,12.0227273 C33.039247,17.3075 35.9762758,22.8411364 36.3570778,28.5036364 C36.4767193,34.9938636 32.767148,38.4540909 27.3682381,39.1884091 C22.7616971,39.8968182 19.5792322,38.8284091 17.1132492,36.4175 L17.1132492,36.4168182 Z" id="Path_2196" fill="#FFFFFF"></path>
                        </g>
                    </g>
                </g>
            </g>
        </g>
    </g>
</svg>