<?xml version="1.0" encoding="UTF-8"?>
<svg width="14px" height="11px" viewBox="0 0 14 11" version="1.1" xmlns="http://www.w3.org/2000/svg" xmlns:xlink="http://www.w3.org/1999/xlink">
    <!-- Generator: Sketch 54.1 (76490) - https://sketchapp.com -->
    <title>icn_img_photos</title>
    <desc>Created with Sketch.</desc>
    <g id="Page-1" stroke="none" stroke-width="1" fill="none" fill-rule="evenodd" opacity="0.601696">
        <g id="BV-Phone-S6-V2" transform="translate(-604.000000, -141.000000)" fill="#FFFFFF" fill-rule="nonzero">
            <g id="Photos-Content" transform="translate(596.000000, 134.000000)">
                <path d="M20.6874698,18 L9.31249687,18 C8.94791455,18 8.63801917,17.872396 8.38281159,17.6171884 C8.127604,17.3619808 8,17.0520855 8,16.6875031 L8,8.8125219 C8,8.44793958 8.127604,8.13804421 8.38281159,7.88283662 C8.63801917,7.62762904 8.94791455,7.50002503 9.31249687,7.50002503 L20.6874698,7.50002503 C21.0520521,7.50002503 21.3619474,7.62762904 21.617155,7.88283662 C21.8723626,8.13804421 21.9999666,8.44793958 21.9999666,8.8125219 L21.9999666,16.6875031 C21.9999666,17.0520855 21.8723626,17.3619808 21.617155,17.6171884 C21.3619474,17.872396 21.0520521,18 20.6874698,18 Z M11.0624927,9.03127138 C10.643223,9.03127138 10.2831977,9.18166165 9.98241715,9.48244218 C9.68163662,9.78322272 9.53124635,10.143248 9.53124635,10.5625177 C9.53124635,10.9817874 9.68163662,11.3418127 9.98241715,11.6425933 C10.2831977,11.9433738 10.643223,12.0937641 11.0624927,12.0937641 C11.4817624,12.0937641 11.8417877,11.9433738 12.1425682,11.6425933 C12.4433488,11.3418127 12.593739,10.9817874 12.593739,10.5625177 C12.593739,10.143248 12.4433488,9.78322272 12.1425682,9.48244218 C11.8417877,9.18166165 11.4817624,9.03127138 11.0624927,9.03127138 Z M9.74999583,16.2500042 L20.2499708,16.2500042 L20.2499708,13.1875115 L17.8437265,10.7812672 C17.7890392,10.7265798 17.7161225,10.6992362 17.6249771,10.6992362 C17.5338316,10.6992362 17.4609149,10.7265798 17.4062276,10.7812672 L13.6874864,14.5000083 L12.1562401,12.968762 C12.1015527,12.9140746 12.0286361,12.8867309 11.9374906,12.8867309 C11.8463451,12.8867309 11.7734285,12.9140746 11.7187411,12.968762 L9.74999583,14.9375073 L9.74999583,16.2500042 Z" id="icn_img_photos"></path>
            </g>
        </g>
    </g>
</svg>