<?xml version="1.0" encoding="UTF-8"?>
<svg width="50px" height="50px" viewBox="0 0 50 50" version="1.1" xmlns="http://www.w3.org/2000/svg" xmlns:xlink="http://www.w3.org/1999/xlink">
    <!-- Generator: Sketch 54.1 (76490) - https://sketchapp.com -->
    <title>icn_img_evernote</title>
    <desc>Created with Sketch.</desc>
    <g id="Page-1" stroke="none" stroke-width="1" fill="none" fill-rule="evenodd">
        <g id="BV-Phone-S1B-V2" transform="translate(-297.000000, -387.000000)" fill-rule="nonzero">
            <g id="Content" transform="translate(247.000000, 149.000000)">
                <g id="Left-content" transform="translate(35.000000, 30.000000)">
                    <g id="Ovals" transform="translate(15.000000, 78.000000)">
                        <g id="icn_img_evernote" transform="translate(0.000000, 130.000000)">
                            <rect id="Rectangle_34-5" fill="#37BB5E" x="0" y="0" width="50" height="50" rx="25"></rect>
                            <path d="M15.8421702,16.8109682 L18.4630793,16.8109682 C18.6137024,16.8109682 18.7358066,16.6886304 18.7358066,16.537719 C18.7358066,16.537719 18.7037611,14.2875124 18.7037611,13.6617718 L18.7037611,13.6549406 C18.6967462,13.192269 18.7980944,12.7343936 18.9996702,12.3180692 L19.0883066,12.1493379 C19.0769886,12.1513913 19.0666742,12.1571592 19.0589884,12.1657328 L13.9698975,17.2208419 C13.9605613,17.2283349 13.9538699,17.2386306 13.9508066,17.2502162 C14.0558066,17.1989819 14.1996702,17.1272541 14.2235338,17.1183735 C14.7352642,16.9022184 15.2869853,16.7974376 15.8421702,16.8109682 Z M36.2223975,16.2603712 C36.1170632,15.4095402 35.5524752,14.6860414 34.7537611,14.3783677 C33.5771301,14.0415087 32.3712853,13.8171245 31.1523975,13.7082242 C29.8837832,13.5826098 28.6080817,13.5440372 27.3342157,13.5927764 C27.2272806,12.8428269 26.7542087,12.1956559 26.072852,11.8672081 C24.5385195,11.3719926 22.9058744,11.264052 21.3198975,11.5529716 C20.772259,11.6870351 20.2845001,11.9993752 19.9330793,12.4410313 C19.6911672,12.8021072 19.5694523,13.2305983 19.585352,13.6651875 C19.585352,13.9698603 19.5942157,14.6898717 19.6017157,15.325176 C19.6092157,15.9604802 19.6180793,16.537719 19.6180793,16.5418178 C19.6169528,17.1124383 19.1553379,17.574631 18.5858066,17.5753826 L15.9655793,17.5753826 C15.5159952,17.5617213 15.068701,17.644643 14.6537611,17.8185744 C14.3624939,17.9463635 14.1095991,18.1481716 13.9201248,18.4040107 C13.6076608,18.892403 13.4639331,19.4700938 13.5110338,20.0482873 C13.5277413,20.5238818 13.5682467,20.9983374 13.6323975,21.469866 C13.7292157,22.1953425 14.5139884,27.2613815 15.2598975,28.8018235 C15.4369142,29.305258 15.8184029,29.7100624 16.3098975,29.9159969 C18.0981677,30.5398205 19.9444932,30.981974 21.8210338,31.2357902 C23.1730793,31.4086203 24.0212611,31.7734079 24.5271702,30.7104687 C24.5271702,30.7104687 24.6294429,30.4467833 24.7664884,30.0621852 C25.1145541,28.9728282 25.2833514,27.8339775 25.2662611,26.6902908 C25.2662611,26.6673495 25.2784768,26.6461508 25.2983066,26.6346802 C25.3181364,26.6232095 25.3425677,26.6232095 25.3623975,26.6346802 C25.3822273,26.6461508 25.3944429,26.6673495 25.3944429,26.6902908 C25.3944429,27.2948545 25.2785338,29.433029 26.8944429,30.0075353 C27.9750699,30.2987129 29.079052,30.4946052 30.1937611,30.5929716 C31.4067157,30.7295962 32.2876248,31.2077822 32.2876248,34.3296536 C32.2876248,36.2273689 31.8901248,36.4883218 29.8098975,36.4883218 C28.1251248,36.4883218 27.4821702,36.5320417 27.4821702,35.1903884 C27.4821702,34.1062724 28.5526248,34.2196708 29.3462611,34.2196708 C29.7001248,34.2196708 29.4430793,33.9559854 29.4430793,33.286525 C29.4430793,32.6170646 29.8589884,32.2358821 29.4655793,32.2263183 C26.7226248,32.1511748 25.1080793,32.2263183 25.1080793,35.66106 C25.1080793,38.7815652 26.3005793,39.3608534 30.1937611,39.3608534 C33.2462611,39.3608534 34.3221702,39.2604343 35.5801248,35.3420417 C36.2208519,33.0224144 36.6290093,30.6445299 36.7985338,28.2437121 C36.9141982,24.2403856 36.7218106,20.2340806 36.2230793,16.2603712 L36.2223975,16.2603712 Z M30.9042157,24.6211117 C30.5433147,24.6091078 30.1820991,24.6319844 29.8255793,24.689424 C29.9217157,23.9188614 30.2380793,22.9741025 31.3623975,23.0137236 C32.6067157,23.0567604 32.7812611,24.2351473 32.7860338,25.0330348 C32.1897516,24.7775319 31.5504829,24.6377502 30.9021702,24.6211117 L30.9042157,24.6211117 Z" id="Path_2197" fill="#FFFFFF"></path>
                        </g>
                    </g>
                </g>
            </g>
        </g>
    </g>
</svg>