<?xml version="1.0" encoding="UTF-8"?>
<svg width="14px" height="11px" viewBox="0 0 14 11" version="1.1" xmlns="http://www.w3.org/2000/svg" xmlns:xlink="http://www.w3.org/1999/xlink">
    <!-- Generator: Sketch 54.1 (76490) - https://sketchapp.com -->
    <title>icn_img_email</title>
    <desc>Created with Sketch.</desc>
    <g id="Page-1" stroke="none" stroke-width="1" fill="none" fill-rule="evenodd" opacity="0.601696">
        <g id="BV-Phone-S6-V2" transform="translate(-462.000000, -141.000000)" fill="#FFFFFF" fill-rule="nonzero">
            <g id="Email-Content" transform="translate(454.000000, 134.000000)">
                <path d="M21.7265298,10.972673 C21.7812171,10.9179856 21.8404619,10.9088712 21.9042637,10.9453293 C21.9680655,10.9817874 21.9999666,11.0364748 21.9999666,11.1093914 L21.9999666,16.6875031 C21.9999666,17.0520855 21.8723626,17.3619808 21.617155,17.6171884 C21.3619474,17.872396 21.0520521,18 20.6874698,18 L9.31249687,18 C8.94791455,18 8.63801917,17.872396 8.38281159,17.6171884 C8.127604,17.3619808 8,17.0520855 8,16.6875031 L8,11.1093914 C8,11.0364748 8.0319011,10.9863448 8.0957029,10.9590012 C8.15950469,10.9316575 8.21874948,10.9362149 8.27343685,10.972673 C8.87499791,11.4284012 10.2786403,12.4583464 12.4843643,14.0625094 L12.7578012,14.3086026 C13.1953001,14.6367268 13.5416536,14.8737055 13.7968612,15.0195384 C14.2343601,15.2565171 14.635401,15.3750063 14.9999833,15.3750063 C15.3645656,15.3750063 15.7656065,15.2474023 16.2031054,14.9921947 C16.4765423,14.8463618 16.8228958,14.6093831 17.2421655,14.2812589 L17.5156023,14.0625094 C19.666639,12.5130338 21.0702813,11.4830886 21.7265298,10.972673 Z M14.9999833,14.5000083 C14.7630046,14.5000083 14.4713389,14.3906336 14.1249854,14.1718841 C13.9244652,14.0625094 13.6419135,13.8619892 13.2773312,13.5703231 L13.0038943,13.3789173 C10.7617122,11.7382962 9.23958024,10.6080907 8.43749896,9.98830035 L8.24609316,9.85158193 C8.08203105,9.72397793 8,9.55080139 8,9.33205192 L8,8.8125219 C8,8.44793958 8.127604,8.13804421 8.38281159,7.88283662 C8.63801917,7.62762904 8.94791455,7.50002503 9.31249687,7.50002503 L20.6874698,7.50002503 C21.0520521,7.50002503 21.3619474,7.62762904 21.617155,7.88283662 C21.8723626,8.13804421 21.9999666,8.44793958 21.9999666,8.8125219 L21.9999666,9.33205192 C21.9999666,9.55080139 21.9179356,9.72397793 21.7538735,9.85158193 L21.617155,9.96095667 C20.8333026,10.580747 19.2929418,11.7200669 16.9960723,13.3789173 L16.7226355,13.5703231 C16.3580531,13.8619892 16.0755014,14.0625094 15.8749812,14.1718841 C15.5286277,14.3906336 15.2369621,14.5000083 14.9999833,14.5000083 Z" id="icn_img_email"></path>
            </g>
        </g>
    </g>
</svg>