<?xml version="1.0" encoding="UTF-8"?>
<svg width="14px" height="11px" viewBox="0 0 14 11" version="1.1" xmlns="http://www.w3.org/2000/svg" xmlns:xlink="http://www.w3.org/1999/xlink">
    <!-- Generator: Sketch 54.1 (76490) - https://sketchapp.com -->
    <title>icn_img_jobs</title>
    <desc>Created with Sketch.</desc>
    <g id="Page-1" stroke="none" stroke-width="1" fill="none" fill-rule="evenodd" fill-opacity="0.6">
        <g id="BV-Phone-S6-768-V2" transform="translate(-245.000000, -151.000000)" fill="#FFFFFF" fill-rule="nonzero">
            <g id="Email-Content" transform="translate(237.000000, 144.000000)">
                <g id="icn_img_jobs" transform="translate(8.000000, 7.000000)">
                    <path d="M8.74753285,7.56542781 C8.74743302,7.68665358 8.69378193,7.80214586 8.59991705,7.88319395 C8.50681818,7.97320469 8.38015899,8.02379868 8.24805697,8.02374436 L5.74813244,8.02374436 C5.6160022,8.02393477 5.48929065,7.97331988 5.39627236,7.88319395 C5.30240748,7.80214586 5.24875641,7.68665358 5.24865656,7.56542781 L5.24865656,6.41658101 L0,6.41658101 L2.39815754e-05,9.85701053 C-0.00205688213,10.1636892 0.13136338,10.4568321 0.367154664,10.6636477 C0.602512645,10.8851646 0.920843286,11.0063111 1.25030438,10.9997465 L12.7484301,10.9997465 C13.0778652,11.0061725 13.396142,10.8850465 13.6315798,10.6636477 C13.8676384,10.4570159 14.0011134,10.1637527 13.9987105,9.85701053 L13.9987424,6.41658101 L8.7488054,6.41658101 L8.7488054,7.56542781 L8.7488054,7.56542781 L8.74753285,7.56542781 Z M5.99818852,6.41658101 L7.99800089,6.41658101 L7.99800089,7.33321409 L5.99818852,7.33321409 L5.99818852,6.41658101 Z M13.6334887,2.16951436 C13.3980508,1.94811552 13.079774,1.82698947 12.750339,1.83341556 L10.0009946,1.83341556 L10.0009946,0.684568753 C10.0030639,0.501032446 9.92342615,0.325382771 9.78211602,0.201808659 C9.64057887,0.0689156249 9.44935806,-0.00375226186 9.25146266,0.00014937905 L4.75172577,0.00014937905 C4.55365011,-0.00371022919 4.36224811,0.0689393889 4.22043614,0.201808659 C4.07885427,0.325195693 3.9991605,0.500968804 4.00155754,0.684568753 L4.00155754,1.83341556 L1.25221321,1.83341556 C0.922752111,1.8268509 0.60442147,1.94799746 0.369063489,2.16951436 C0.133272205,2.37632996 -0.000148057098,2.66947281 0.00193280661,2.97615148 L0.00190882504,5.72605074 L14,5.72605074 L13.9999831,2.97615148 C14.0017353,2.66903054 13.8673077,2.37570773 13.6303073,2.16951436 L13.6334887,2.16951436 Z M9.00077031,1.83341556 L5.00114558,1.83341556 L5.00114558,0.916782469 L9.00077031,0.916782469 L9.00077031,1.83341556 Z" id="_-e-Forma_1"></path>
                </g>
            </g>
        </g>
    </g>
</svg>