<?xml version="1.0" encoding="UTF-8"?>
<svg width="14px" height="15px" viewBox="0 0 14 15" version="1.1" xmlns="http://www.w3.org/2000/svg" xmlns:xlink="http://www.w3.org/1999/xlink">
    <!-- Generator: Sketch 54.1 (76490) - https://sketchapp.com -->
    <title>icn_img_phone</title>
    <desc>Created with Sketch.</desc>
    <g id="Page-1" stroke="none" stroke-width="1" fill="none" fill-rule="evenodd" opacity="0.601696">
        <g id="BV-Phone-S6-V2" transform="translate(-746.000000, -139.000000)" fill="#FFFFFF" fill-rule="nonzero">
            <g id="Phone-Content" transform="translate(738.000000, 134.000000)">
                <path d="M21.4804366,6.43362133 C21.6444987,6.45185059 21.7721027,6.5247668 21.8632482,6.6523708 C21.9543937,6.77997481 21.9999666,6.91669323 21.9999666,7.06252608 C21.9999666,9.3593956 21.4257492,11.492203 20.2773145,13.4609483 C19.147109,15.3750063 17.6249771,16.8971382 15.7109191,18.0273437 C13.7421738,19.1757784 11.6093664,19.7499958 9.31249687,19.7499958 C9.16666402,19.7499958 9.0299456,19.7044229 8.9023416,19.6132774 C8.7747376,19.5221319 8.70182138,19.3945279 8.68359212,19.2304658 L8.02734368,16.3867226 C7.99088558,16.2408897 8.00911442,16.0950565 8.08203105,15.9492236 C8.15494769,15.8033908 8.26432243,15.7031305 8.41015527,15.6484431 L11.472648,14.3359462 C11.600252,14.2812589 11.7369704,14.267587 11.8828032,14.2949307 C12.0286361,14.3222744 12.1471257,14.399748 12.2382711,14.527352 L13.5781117,16.1679731 C14.6536298,15.6757868 15.6061018,15.0104239 16.4355268,14.1718841 C17.2649517,13.3333443 17.9257576,12.3854302 18.4179439,11.3281409 L16.7773228,9.96095667 C16.6679481,9.86981119 16.5950315,9.75587903 16.5585733,9.61916061 C16.5221152,9.48244218 16.5312297,9.34116634 16.585917,9.19533349 L17.8984139,6.13284079 C17.9531013,6.00523679 18.0533616,5.90497689 18.1991944,5.83206026 C18.3450273,5.75914363 18.4908605,5.74091478 18.6366934,5.77737289 L21.4804366,6.43362133 Z" id="icn_img_phone" transform="translate(15.004541, 12.754570) scale(-1, 1) translate(-15.004541, -12.754570) "></path>
            </g>
        </g>
    </g>
</svg>