<?xml version="1.0" encoding="UTF-8"?>
<svg width="50px" height="50px" viewBox="0 0 50 50" version="1.1" xmlns="http://www.w3.org/2000/svg" xmlns:xlink="http://www.w3.org/1999/xlink">
    <!-- Generator: Sketch 54.1 (76490) - https://sketchapp.com -->
    <title>icn_img_instagram</title>
    <desc>Created with Sketch.</desc>
    <defs>
        <radialGradient cx="-2.50254437%" cy="100.331814%" fx="-2.50254437%" fy="100.331814%" r="184.88993%" id="radialGradient-1">
            <stop stop-color="#F5EC53" offset="0%"></stop>
            <stop stop-color="#E48244" offset="24.1%"></stop>
            <stop stop-color="#D05667" offset="39.7%"></stop>
            <stop stop-color="#C84278" offset="48.9%"></stop>
            <stop stop-color="#192CFA" offset="100%"></stop>
        </radialGradient>
    </defs>
    <g id="Page-1" stroke="none" stroke-width="1" fill="none" fill-rule="evenodd">
        <g id="BV-Phone-S1B-V2" transform="translate(-417.000000, -257.000000)" fill-rule="nonzero">
            <g id="Content" transform="translate(247.000000, 149.000000)">
                <g id="Left-content" transform="translate(35.000000, 30.000000)">
                    <g id="Ovals" transform="translate(15.000000, 78.000000)">
                        <g id="icn_img_instagram" transform="translate(120.000000, 0.000000)">
                            <path d="M24.9996515,50 L24.9996515,50 C11.1927252,50 0,38.8072748 0,25.0003485 L0,25.0003485 C-0.000184882486,18.369908 2.63361779,12.0109697 7.32198192,7.32247484 C12.0103461,2.63397997 18.3692109,-2.5776256e-09 24.9996515,0 L24.9996515,0 C38.8069627,0 50,11.1930373 50,25.0003485 L50,25.0003485 C49.999615,38.8073876 38.8066905,50 24.9996515,50 Z" id="Path_2186" fill="url(#radialGradient-1)"></path>
                            <g id="Group_999" transform="translate(11.000000, 11.000000)" fill="#FFFFFF">
                                <path d="M13.9405814,2.66262327 C17.557102,2.66262327 17.9854919,2.67642998 19.413229,2.7413215 C20.2722082,2.75170111 21.1230136,2.91002276 21.9284705,3.20936884 C23.1089739,3.66642641 24.042127,4.60175473 24.4981216,5.78500986 C24.7967716,6.59234429 24.954725,7.44513286 24.9650805,8.3061144 C25.0298211,9.73717949 25.0435957,10.166568 25.0435957,13.7915187 C25.0435957,17.4164694 25.0298211,17.8451677 24.9650805,19.2769231 C24.9548376,20.1376912 24.7968794,20.990272 24.4981216,21.7973373 C24.0424358,22.9809503 23.1092088,23.9166034 21.9284705,24.3736686 C21.1230416,24.6730316 20.2721935,24.8311277 19.413229,24.8410256 C17.9854919,24.9059172 17.5536583,24.9204142 13.9405814,24.9204142 C10.3275045,24.9204142 9.89635957,24.9059172 8.46793381,24.8410256 C7.60918228,24.831241 6.75854124,24.6731401 5.95338104,24.3736686 C4.77228554,23.9169132 3.83873433,22.9811859 3.38304114,21.7973373 C3.08494132,20.9901136 2.92722999,20.137608 2.91677102,19.2769231 C2.85134168,17.8451677 2.83825581,17.4130178 2.83825581,13.7915187 C2.83825581,10.1700197 2.85134168,9.73717949 2.91677102,8.3061144 C2.92736877,7.4452186 3.08507453,6.59250965 3.38304114,5.78500986 C3.8390434,4.60151926 4.77252058,3.66611685 5.95338104,3.20936884 C6.7585694,2.90991473 7.60916751,2.75158829 8.46793381,2.7413215 C9.89635957,2.67642998 10.3275045,2.66262327 13.9405814,2.66262327 M13.9405814,0.216765286 C10.2627639,0.216765286 9.80131485,0.232642998 8.3570483,0.298224852 C7.23358916,0.320931166 6.12208915,0.53427269 5.06974061,0.929191321 C3.25051455,1.63434087 1.81236477,3.07584299 1.1088551,4.89930966 C0.714585057,5.95403528 0.501730769,7.06817281 0.479355993,8.19428008 C0.410483005,9.64398422 0.397397138,10.1044379 0.397397138,13.7915187 C0.397397138,17.4785996 0.413237925,17.9404339 0.479355993,19.3880671 C0.501746101,20.5143971 0.714598653,21.6287589 1.1088551,22.6837278 C1.81236477,24.5071945 3.25051455,25.9486966 5.06974061,26.6538462 C6.12218261,27.048431 7.23362532,27.2617616 8.3570483,27.2848126 C9.80338104,27.3538462 10.2627639,27.3662722 13.9405814,27.3662722 C17.6183989,27.3662722 18.0798479,27.3503945 19.5248032,27.2848126 C20.6482193,27.2616954 21.759651,27.048367 22.8121109,26.6538462 C24.631337,25.9486966 26.0694868,24.5071945 26.7729964,22.6837278 C27.1669319,21.6286686 27.3797739,20.5143622 27.4024955,19.3880671 C27.4713685,17.9383629 27.4837657,17.4779093 27.4837657,13.7915187 C27.4837657,10.1051282 27.4679249,9.64260355 27.4024955,8.19428008 C27.379789,7.06820773 27.1669453,5.95412567 26.7729964,4.89930966 C26.0694868,3.07584299 24.631337,1.63434087 22.8121109,0.929191321 C21.7597444,0.534336966 20.6482554,0.320997562 19.5248032,0.298224852 C18.0784705,0.229191321 17.6190877,0.216765286 13.9405814,0.216765286" id="Path_2187"></path>
                                <path d="M13.9405814,6.82051282 C11.1270726,6.82051282 8.59059992,8.51928027 7.5139167,11.1246826 C6.43723349,13.7300849 7.03237401,16.7290327 9.02182519,18.7231212 C11.0112764,20.7172098 14.0032498,21.3137376 16.6025931,20.2345447 C19.2019363,19.1553517 20.8967531,16.6129665 20.8967531,13.7928994 C20.8967531,9.94215663 17.782369,6.82051282 13.9405814,6.82051282 M13.9405814,18.3166667 C11.4472232,18.3166667 9.42595707,16.2906889 9.42595707,13.7915187 C9.42595707,11.2923485 11.4472232,9.26637081 13.9405814,9.26637081 C16.4339396,9.26637081 18.4552057,11.2923485 18.4552057,13.7915187 C18.4553884,14.9917187 17.9798006,16.1428142 17.1331046,16.9914838 C16.2864087,17.8401533 15.1379902,18.3168498 13.9405814,18.3166667" id="Path_2188"></path>
                                <path d="M22.7969589,6.54506903 C22.7972374,7.20407816 22.4013975,7.79835227 21.7940483,8.05073766 C21.1866991,8.30312305 20.4874716,8.1639068 20.0224669,7.6980157 C19.5574623,7.23212459 19.4182734,6.53132622 19.6698145,5.92245439 C19.9213555,5.31358256 20.5140797,4.91656811 21.1715564,4.91656805 C22.0688152,4.91694864 22.7961989,5.64571896 22.7969589,6.54506903" id="Path_2189"></path>
                            </g>
                        </g>
                    </g>
                </g>
            </g>
        </g>
    </g>
</svg>