<?xml version="1.0" encoding="UTF-8"?>
<svg width="50px" height="50px" viewBox="0 0 50 50" version="1.1" xmlns="http://www.w3.org/2000/svg" xmlns:xlink="http://www.w3.org/1999/xlink">
    <!-- Generator: Sketch 54.1 (76490) - https://sketchapp.com -->
    <title>icn_img_generic_caller</title>
    <desc>Created with Sketch.</desc>
    <g id="Page-1" stroke="none" stroke-width="1" fill="none" fill-rule="evenodd">
        <g id="BV-Phone-S3-V2" transform="translate(-298.000000, -385.000000)">
            <g id="Content" transform="translate(247.000000, 174.000000)">
                <g id="Left-Content" transform="translate(31.000000, 40.000000)">
                    <g id="Card2" transform="translate(0.000000, 161.000000)">
                        <g id="icn_img_generic_caller" transform="translate(20.000000, 10.000000)">
                            <circle id="Oval-8" fill="#353167" cx="25" cy="25" r="25"></circle>
                            <g id="Group-13" transform="translate(11.750000, 9.750000)">
                                <path d="M18.1032767,27.8533476 C16.9668539,28.9831301 15.1214855,28.9827106 13.9854846,27.8533476 C8.45908515,22.3596597 5.08695184,17.2980832 1.27425949,21.0905947 C-0.485022673,22.8400165 -0.347031484,25.4532416 1.22362053,27.0147159 L5.04686265,30.815618 C5.29330563,31.0606209 5.69377548,31.062299 5.94232841,30.815618 C6.19003737,30.5693564 6.18919339,30.1708071 5.94232841,29.9258041 L2.11866429,26.1249021 C1.04174223,25.0538532 0.907548963,23.2352097 2.16972525,21.9804086 C3.30614811,20.8506261 5.15109453,20.8510456 6.28751738,21.9804086 L13.0900188,28.7431614 C14.7159517,30.3595936 17.3635258,30.3688232 18.9995865,28.7423224 C20.5098937,27.1988876 20.6297393,25.4742179 19.8849244,24.0058782 C19.3536373,24.0004244 18.8350098,23.9685404 18.3294641,23.912324 C19.2878066,25.0882543 19.4190459,26.5456863 18.1032767,27.8533476 Z" id="Fill-3244" fill="#EBEAF4"></path>
                                <g id="Group-12" transform="translate(14.148808, 12.384294) rotate(4.000000) translate(-14.148808, -12.384294) translate(2.773808, 1.009294)">
                                    <path d="M22.7142857,17.914357 C22.7142857,18.4943182 22.4561688,19.6220205 22.2141843,20.1536516 C21.8754058,20.9430432 20.9719968,21.4585643 20.246043,21.8613151 C19.294237,22.3768362 18.3262987,22.6829268 17.2454343,22.6829268 C15.7451299,22.6829268 14.3900162,22.0707456 13.0187703,21.5713345 C12.0346997,21.2169138 11.0828937,20.7819429 10.1956169,20.2342018 C7.453125,18.5426483 4.14600244,15.2400915 2.45211039,12.5013858 C1.90361201,11.615334 1.46803977,10.664842 1.11312906,9.68212999 C0.613027597,8.31277716 0,6.95953437 0,5.46130127 C0,4.38192905 0.306513799,3.41532705 0.822747565,2.46483509 C1.22605519,1.73988359 1.74228896,0.837721729 2.53277192,0.499411031 C3.06513799,0.257760532 4.19439935,0 4.77516234,0 C4.88808847,0 5.00101461,0 5.11394075,0.0483300998 C5.45271916,0.161100333 5.80762987,0.950491962 5.96895292,1.27269263 C6.48518669,2.19096452 6.98528815,3.12534645 7.51765422,4.02750831 C7.7757711,4.44636918 8.25974026,4.96189024 8.25974026,5.46130127 C8.25974026,6.4440133 5.33979302,7.87780626 5.33979302,8.74774806 C5.33979302,9.18271896 5.74310065,9.74657012 5.96895292,10.1332109 C7.59831575,13.065237 9.6309862,15.0951012 12.5670657,16.7222145 C12.9542411,16.947755 13.5188718,17.3505058 13.954444,17.3505058 C14.8255885,17.3505058 16.2613636,14.4345898 17.2454343,14.4345898 C17.7455357,14.4345898 18.2617695,14.9178908 18.6812094,15.1756513 C19.5846185,15.7072824 20.5202922,16.2066935 21.4398336,16.7222145 C21.7624797,16.8833149 22.5529627,17.2377356 22.6658888,17.5760463 C22.7142857,17.6888165 22.7142857,17.8015868 22.7142857,17.914357 Z" id="" fill="#8B88AA"></path>
                                    <path d="M22.2246187,20.1310994 L15.3528302,16.1493565 C16.0073388,15.3457486 16.6981901,14.4347274 17.2479823,14.4347274 C17.7478508,14.4347274 18.263844,14.918033 18.6830885,15.175796 C19.5860767,15.7074321 20.5213144,16.2068479 21.4404274,16.7223739 C21.7629232,16.8834758 22.5530378,17.2378999 22.6659113,17.5762138 C22.7142857,17.6889851 22.7142857,17.8017564 22.7142857,17.9145277 C22.7142857,18.4863502 22.4634841,19.5906435 22.2246156,20.1310976 Z M2.55535735,0.493480245 C3.09272947,0.253561612 4.2077784,0 4.78352053,0 C4.89639405,0 5.00926758,0 5.1221411,0.0483305604 C5.46076166,0.161101868 5.81550702,0.950501022 5.97675491,1.27270476 C6.49274815,2.19098541 6.9926166,3.12537624 7.52473463,4.0275467 C7.78273125,4.44641156 8.26647492,4.96193754 8.26647492,5.46135333 C8.26647492,6.03899369 7.25808882,6.77248622 6.4267686,7.4557098 L2.55535714,0.493479626 Z" id="Combined-Shape" fill="#EBEAF4"></path>
                                </g>
                            </g>
                        </g>
                    </g>
                </g>
            </g>
        </g>
    </g>
</svg>