<?xml version="1.0" encoding="UTF-8"?>
<svg width="50px" height="50px" viewBox="0 0 50 50" version="1.1" xmlns="http://www.w3.org/2000/svg" xmlns:xlink="http://www.w3.org/1999/xlink">
    <!-- Generator: Sketch 54.1 (76490) - https://sketchapp.com -->
    <title>icn_img_vimeo</title>
    <desc>Created with Sketch.</desc>
    <g id="Page-1" stroke="none" stroke-width="1" fill="none" fill-rule="evenodd">
        <g id="BV-Phone-S1B-V2" transform="translate(-477.000000, -387.000000)" fill-rule="nonzero">
            <g id="Content" transform="translate(247.000000, 149.000000)">
                <g id="Left-content" transform="translate(35.000000, 30.000000)">
                    <g id="Ovals" transform="translate(15.000000, 78.000000)">
                        <g id="icn_img_vimeo" transform="translate(180.000000, 130.000000)">
                            <rect id="Rectangle_34-6" fill="#1EB8EB" x="0" y="0" width="50" height="50" rx="25"></rect>
                            <path d="M34.757391,13.0050344 C30.9028825,12.8808905 28.2919623,15.0527254 26.9246305,19.5205389 C27.5723778,19.2298791 28.2729745,19.0748035 28.9831486,19.0648901 C30.3960581,19.0648901 31.0200172,19.8581828 30.8550259,21.4447682 C30.7720744,22.4024492 30.1481153,23.7991809 28.9831486,25.6349634 C27.8181818,27.4707459 26.9442289,28.387273 26.3612897,28.3845445 C25.6101688,28.3845445 24.9235403,26.9705327 24.3014043,24.1425091 C24.0903794,23.3117004 23.7152747,21.1912511 23.1760902,17.7811611 C22.6747352,14.6193588 21.342726,13.1428204 19.1800628,13.3515457 C18.2639505,13.434763 16.8902377,14.2653443 15.0589246,15.8432896 C13.7257761,17.047894 12.3728012,18.2529531 11,19.458467 L12.3092203,21.1405476 C12.9676787,20.5993727 13.7028493,20.1584933 14.4907982,19.8322627 C15.4479305,19.8322627 16.3410261,21.326536 17.170085,24.3150826 C17.9189271,27.0530679 18.6675413,29.7915079 19.4159276,32.5304026 C20.5357724,35.5171303 21.9067504,37.0104941 23.5288618,37.0104941 C26.145935,37.0104941 29.3448078,34.5580851 33.1254804,29.6532672 C36.7821816,24.956265 38.6736573,21.2569609 38.7999076,18.5553548 C38.9621643,14.9388132 37.6146588,13.0887064 34.757391,13.0050344 Z" id="Path_2194" fill="#FFFFFF"></path>
                        </g>
                    </g>
                </g>
            </g>
        </g>
    </g>
</svg>