<?xml version="1.0" encoding="UTF-8"?>
<svg width="50px" height="50px" viewBox="0 0 50 50" version="1.1" xmlns="http://www.w3.org/2000/svg" xmlns:xlink="http://www.w3.org/1999/xlink">
    <!-- Generator: Sketch 54.1 (76490) - https://sketchapp.com -->
    <title>icn_img_tumblr</title>
    <desc>Created with Sketch.</desc>
    <g id="Page-1" stroke="none" stroke-width="1" fill="none" fill-rule="evenodd">
        <g id="BV-Phone-S1B-V2" transform="translate(-417.000000, -452.000000)" fill-rule="nonzero">
            <g id="Content" transform="translate(247.000000, 149.000000)">
                <g id="Left-content" transform="translate(35.000000, 30.000000)">
                    <g id="Ovals" transform="translate(15.000000, 78.000000)">
                        <g id="icn_img_tumblr" transform="translate(120.000000, 195.000000)">
                            <rect id="Rectangle_32" fill="#36465D" x="0" y="0" width="50" height="50" rx="25"></rect>
                            <path d="M19.0570055,32.3265834 C19.0141047,33.3199942 19.1497384,34.3130431 19.4574176,35.2582218 C19.7775382,36.0020262 20.2724188,36.6569345 20.8997253,37.1669231 C21.6363875,37.7904928 22.4895664,38.2603462 23.4093407,38.548991 C24.504954,38.8887629 25.6474062,39.0516332 26.793956,39.0315085 C27.8491571,39.038645 28.9017327,38.9250956 29.9313187,38.6930569 C31.049589,38.4109939 32.1357417,38.0134381 33.1723901,37.5067532 L33.1723901,33.0986114 C31.933469,33.9698534 30.4643839,34.4516516 28.9519231,34.4827473 C28.2072766,34.4968082 27.4733381,34.3032907 26.8317308,33.9237163 C26.3928744,33.6810437 26.0537221,33.2903573 25.8743132,32.8208192 C25.6457435,31.7942421 25.5593067,30.7409358 25.6174451,29.6906593 L25.6174451,22.5004595 L32.2506868,22.5004595 L32.2506868,18.0999001 L25.6174451,18.0999001 L25.6174451,11 L21.6607143,11 C21.5401455,12.23666 21.2105694,13.4436726 20.6861264,14.5692507 C20.2268913,15.4881811 19.5886063,16.3052877 18.8090659,16.9721878 C17.9824967,17.6647629 17.0279193,18.1868877 16,18.5086613 L16,22.5018382 L19.0583791,22.5018382 L19.0570055,32.3265834 Z" id="Path_2192" fill="#FFFFFF"></path>
                        </g>
                    </g>
                </g>
            </g>
        </g>
    </g>
</svg>