<?xml version="1.0" encoding="UTF-8"?>
<svg width="50px" height="50px" viewBox="0 0 50 50" version="1.1" xmlns="http://www.w3.org/2000/svg" xmlns:xlink="http://www.w3.org/1999/xlink">
    <!-- Generator: Sketch 54.1 (76490) - https://sketchapp.com -->
    <title>icn_img_google+</title>
    <desc>Created with Sketch.</desc>
    <g id="Page-1" stroke="none" stroke-width="1" fill="none" fill-rule="evenodd">
        <g id="BV-Phone-S1B-V2" transform="translate(-477.000000, -322.000000)" fill-rule="nonzero">
            <g id="Content" transform="translate(247.000000, 149.000000)">
                <g id="Left-content" transform="translate(35.000000, 30.000000)">
                    <g id="Ovals" transform="translate(15.000000, 78.000000)">
                        <g id="icn_img_google+" transform="translate(180.000000, 65.000000)">
                            <path d="M24.9996515,50 L24.9996515,50 C11.1927252,50 0,38.8072748 0,25.0003485 L0,25.0003485 C-0.000184882486,18.369908 2.63361779,12.0109697 7.32198192,7.32247484 C12.0103461,2.63397997 18.3692109,-2.5776256e-09 24.9996515,0 L24.9996515,0 C38.8069627,0 50,11.1930373 50,25.0003485 L50,25.0003485 C49.999615,38.8073876 38.8066905,50 24.9996515,50 Z" id="Path_2178" fill="#DF4B38"></path>
                            <g id="Group_993" transform="translate(8.000000, 14.000000)" fill="#FFFFFF">
                                <path d="M20.3495455,10.2060969 L10.4706818,10.2060969 L10.4822727,13.0217123 L17.1436364,13.0217123 C16.3554545,16.4506569 13.9240909,18.5525308 10.6609091,18.5525308 C7.18804633,18.5542451 4.13793052,16.2570831 3.19642506,12.9307349 C2.2549196,9.60438663 3.65186224,6.0608711 6.61513328,4.25876414 C9.57840433,2.45665718 13.3846181,2.83588422 15.93,5.18683846 L18.1159091,3.31224923 C14.6980153,-0.0388173785 9.44690811,-0.693910482 5.30345468,1.71385288 C1.16000125,4.12161624 -0.846992107,8.99439606 0.406485315,13.6032064 C1.65996274,18.2120167 5.86267647,21.4125046 10.6609091,21.4122462 C16.2947727,21.4122462 20.3665909,17.1379385 20.3665909,11.2977415 L20.3495455,10.2060969 Z" id="Path_2179"></path>
                                <polygon id="Path_2180" points="34.5490909 10.3227923 30.4704545 10.3227923 30.4704545 6.26491385 27.8686364 6.26491385 27.8686364 10.3227923 23.7906818 10.3227923 23.7906818 12.9118015 27.8686364 12.9118015 27.8686364 16.96968 30.4704545 16.96968 30.4704545 12.9118015 34.5484091 12.9118015"></polygon>
                            </g>
                        </g>
                    </g>
                </g>
            </g>
        </g>
    </g>
</svg>