<?xml version="1.0" encoding="UTF-8"?>
<svg width="50px" height="50px" viewBox="0 0 50 50" version="1.1" xmlns="http://www.w3.org/2000/svg" xmlns:xlink="http://www.w3.org/1999/xlink">
    <!-- Generator: Sketch 54.1 (76490) - https://sketchapp.com -->
    <title>icn_img_skype</title>
    <desc>Created with Sketch.</desc>
    <g id="Page-1" stroke="none" stroke-width="1" fill="none" fill-rule="evenodd">
        <g id="BV-Phone-S1B-V2" transform="translate(-357.000000, -387.000000)" fill-rule="nonzero">
            <g id="Content" transform="translate(247.000000, 149.000000)">
                <g id="Left-content" transform="translate(35.000000, 30.000000)">
                    <g id="Ovals" transform="translate(15.000000, 78.000000)">
                        <g id="icn_img_skype" transform="translate(60.000000, 130.000000)">
                            <rect id="Rectangle_30" fill="#00AEF7" x="0" y="0" width="50" height="50" rx="25"></rect>
                            <path d="M10.9675593,25.4298587 C10.9665318,29.458017 12.781869,33.2765469 15.9184855,35.8440448 C19.055102,38.4115428 23.1858274,39.4602013 27.1841151,38.7040264 C30.3389103,40.5857689 34.3857764,40.0834602 36.9731848,37.4889788 C39.5605932,34.8944973 40.0146419,30.8835874 38.071495,27.7868844 C38.2104186,27.0087114 38.2808723,26.2200807 38.2820641,25.4298587 C38.2834752,21.4093665 36.4752888,17.5971311 33.3489798,15.0293384 C30.2226708,12.4615457 26.1030846,11.4050074 22.1099466,12.1468962 C18.9614236,10.2538571 14.9120989,10.7426866 12.3158161,13.3292316 C9.71953336,15.9157767 9.25283774,19.9260295 11.1870161,23.0288587 C11.0419801,23.8211583 10.9685377,24.6246655 10.9675593,25.4298587 Z M24.7714581,15.8272118 C29.1770013,16.0829396 31.7557892,17.9995451 32.0066946,19.7903163 C32.0853055,20.3490214 31.9000267,20.9124762 31.5042142,21.3184186 C31.1084017,21.7243611 30.5459903,21.927732 29.9789415,21.8699653 C27.9867389,21.8699653 27.7836902,19.2416516 24.3530545,19.2416516 C22.8052349,19.2416516 21.4987493,19.8782651 21.4987493,21.2590599 C21.4987493,24.1458075 32.4914137,22.4693696 32.4914137,28.8233262 C32.4914137,32.486052 29.5290893,34.885699 25.1078217,34.885699 C21.2184463,34.885699 17.3085608,33.1409317 17.3290708,30.1371447 C17.2988501,29.2252526 18.0072055,28.4550357 18.9274817,28.3991428 C21.2184463,28.3991428 21.1972526,31.7669021 24.8446103,31.7669021 C27.4022046,31.7669021 28.2766133,30.3854307 28.2766133,29.4227305 C28.2766133,25.9460501 17.2183169,28.0777917 17.2183169,21.5384662 C17.2142149,17.9995451 20.1539784,15.5593065 24.7714581,15.8272118 L24.7714581,15.8272118 Z" id="Path_2169" fill="#FFFFFF"></path>
                        </g>
                    </g>
                </g>
            </g>
        </g>
    </g>
</svg>