<?xml version="1.0" encoding="UTF-8"?>
<svg width="80px" height="80px" viewBox="0 0 80 80" version="1.1" xmlns="http://www.w3.org/2000/svg" xmlns:xlink="http://www.w3.org/1999/xlink">
    <!-- Generator: Sketch 54.1 (76490) - https://sketchapp.com -->
    <title>icn_img_criminal_record</title>
    <desc>Created with Sketch.</desc>
    <g id="Page-1" stroke="none" stroke-width="1" fill="none" fill-rule="evenodd">
        <g id="BV-Phone-S2-V2" transform="translate(-402.000000, -214.000000)">
            <g id="Content" transform="translate(247.000000, 174.000000)">
                <g id="Left-Content" transform="translate(36.000000, 40.000000)">
                    <g id="icn_img_criminal_record" transform="translate(119.000000, 0.000000)">
                        <circle id="background" fill="#353167" cx="40" cy="40" r="40"></circle>
                        <g id="badge" transform="translate(16.000000, 14.800000)">
                            <path d="M37.9352516,25.2002362 L44.3633806,16.4818237 C46.3205419,16.8330487 47.9997677,15.2966362 47.9997677,13.3877362 C47.9997677,11.6481487 46.6131871,10.2377362 44.9029935,10.2377362 C43.4614452,10.2377362 42.2614452,11.2433737 41.9161548,12.6002362 L30.1933161,12.6002362 L26.4717677,5.02921125 C26.8588645,4.50316125 27.0965419,3.85741125 27.0965419,3.15023625 C27.0965419,1.41064875 25.7099613,0.00023625 23.9997677,0.00023625 C22.2895742,0.00023625 20.9029935,1.41064875 20.9029935,3.15023625 C20.9029935,3.85741125 21.140671,4.50316125 21.5277677,5.02921125 L17.8062194,12.6002362 L6.08415484,12.6002362 C5.73886452,11.2433737 4.53809032,10.2377362 3.09654194,10.2377362 C1.38634839,10.2377362 -0.000232258064,11.6481487 -0.000232258064,13.3877362 C-0.000232258064,15.2934862 1.67589677,16.8330487 3.63692903,16.4818237 L10.0642839,25.2002362 L3.63692903,33.9178612 C1.67899355,33.5674237 -0.000232258064,35.1030487 -0.000232258064,37.0127362 C-0.000232258064,38.7523237 1.38634839,40.1627362 3.09654194,40.1627362 C4.53809032,40.1627362 5.73886452,39.1563112 6.08415484,37.8002362 L17.8062194,37.8002362 L21.5277677,45.3704737 C21.140671,45.8965237 20.9029935,46.5422737 20.9029935,47.2502362 C20.9029935,48.9898237 22.2895742,50.4002362 23.9997677,50.4002362 C25.7099613,50.4002362 27.0965419,48.9898237 27.0965419,47.2502362 C27.0965419,46.5422737 26.8588645,45.8965237 26.4717677,45.3704737 L30.1933161,37.8002362 L41.9161548,37.8002362 C42.2614452,39.1563112 43.4614452,40.1627362 44.9029935,40.1627362 C46.6131871,40.1627362 47.9997677,38.7523237 47.9997677,37.0127362 C47.9997677,35.1069862 46.3236387,33.5666362 44.3633806,33.9178612 L37.9352516,25.2002362 Z" id="Fill-2401" fill="#E1C618"></path>
                            <path d="M30.1935484,12.6 L26.472,5.028975 C26.8590968,4.5037125 27.0967742,3.857175 27.0967742,3.15 C27.0967742,1.4104125 25.7101935,0 24,0 C22.2898065,0 20.9032258,1.4104125 20.9032258,3.15 C20.9032258,3.857175 21.1409032,4.5037125 21.528,5.028975 L17.8064516,12.6 L6.0843871,12.6 C5.73909677,11.243925 4.53832258,10.2375 3.09677419,10.2375 C1.38658065,10.2375 0,11.6479125 0,13.3875 C0,15.29325 1.67612903,16.8328125 3.6363871,16.482375 L10.0645161,25.2 L3.6363871,33.917625 C1.67922581,33.5671875 0,35.1036 0,37.0125 C0,38.7520875 1.38658065,40.1625 3.09677419,40.1625 C4.53832258,40.1625 5.73909677,39.156075 6.0843871,37.8 L11.595871,37.8 L36.3700645,12.6 L30.1935484,12.6 Z" id="Fill-2402" fill="#F2DA3E"></path>
                            <path d="M34.8387097,25.2 C34.8387097,31.28895 29.9860645,36.225 24,36.225 C18.0139355,36.225 13.1612903,31.28895 13.1612903,25.2 C13.1612903,19.11105 18.0139355,14.175 24,14.175 C29.9860645,14.175 34.8387097,19.11105 34.8387097,25.2" id="Fill-2403" fill="#F2DA3E"></path>
                            <path d="M24,14.175 C18.0139355,14.175 13.1612903,19.11105 13.1612903,25.2 C13.1612903,28.23975 14.3713548,30.99285 16.3277419,32.9868 L31.6552258,17.395875 C29.6941935,15.4058625 26.9883871,14.175 24,14.175" id="Fill-2404" fill="#F5E895"></path>
                            <path d="M24,33.8625 C19.2967742,33.8625 15.483871,29.9840625 15.483871,25.2 C15.483871,20.4159375 19.2967742,16.5375 24,16.5375 C28.7032258,16.5375 32.516129,20.4159375 32.516129,25.2 C32.516129,29.9840625 28.7032258,33.8625 24,33.8625 Z" id="Fill-2405" fill="#D7BA00"></path>
                            <path d="M24,16.5375 C19.2967742,16.5375 15.483871,20.4159375 15.483871,25.2 C15.483871,27.5877 16.4338065,29.7493875 17.9698065,31.3165125 L30.0131613,19.0661625 C28.4725161,17.5037625 26.3473548,16.5375 24,16.5375" id="Fill-2406" fill="#E9CE1B"></path>
                        </g>
                    </g>
                </g>
            </g>
        </g>
    </g>
</svg>