<?xml version="1.0" encoding="UTF-8"?>
<svg width="50px" height="50px" viewBox="0 0 50 50" version="1.1" xmlns="http://www.w3.org/2000/svg" xmlns:xlink="http://www.w3.org/1999/xlink">
    <!-- Generator: Sketch 54.1 (76490) - https://sketchapp.com -->
    <title>icn_img_twitter</title>
    <desc>Created with Sketch.</desc>
    <g id="Page-1" stroke="none" stroke-width="1" fill="none" fill-rule="evenodd">
        <g id="BV-Phone-S1B-V2" transform="translate(-297.000000, -257.000000)" fill-rule="nonzero">
            <g id="Content" transform="translate(247.000000, 149.000000)">
                <g id="Left-content" transform="translate(35.000000, 30.000000)">
                    <g id="Ovals" transform="translate(15.000000, 78.000000)">
                        <g id="icn_img_twitter">
                            <path d="M24.9996515,50 L24.9996515,50 C11.1928847,49.999615 0.000384970285,38.8071153 0,25.0003485 L0,25.0003485 C-5.36727382e-09,11.1933095 11.1926124,0.000384983243 24.9996515,0 L24.9996515,0 C38.8069627,0 50,11.1930373 50,25.0003485 L50,25.0003485 C49.999615,38.8073876 38.8066905,50 24.9996515,50 Z" id="Path_2176" fill="#29A9E1"></path>
                            <path d="M12,32.6831049 C14.4476221,34.2463301 17.2964548,35.0761285 20.2060138,35.0733249 C30.144856,35.0733249 35.7591377,26.7316403 35.4211747,19.2495665 C36.4696574,18.4972673 37.3742216,17.5646125 38.0921062,16.4956911 C37.1159295,16.9260353 36.0802492,17.2082566 35.0197157,17.3329126 C36.1375692,16.6685815 36.9738804,15.6226496 37.3724841,14.3904249 C36.3215978,15.0090859 35.1721897,15.4450335 33.9737374,15.6795019 C32.3150636,13.9242089 29.6771928,13.493897 27.5408448,14.6301136 C25.4044967,15.7663303 24.3016915,18.1861206 24.8514684,20.5311803 C20.5467538,20.3173216 16.536019,18.2966912 13.8181725,14.9725449 C12.3978293,17.4037196 13.1232542,20.5132097 15.4752151,22.0753588 C14.6248419,22.0484074 13.7932109,21.8202336 13.0493921,21.409788 C13.0186892,23.9668309 14.8211824,26.1846369 17.3432286,26.692968 C16.5552876,26.9057515 15.7288414,26.9368472 14.9269641,26.7838819 C15.6269168,28.9511779 17.6365858,30.4360694 19.9267677,30.4781049 C17.6831795,32.228322 14.8319415,33.0214548 12,32.6831049 L12,32.6831049 Z" id="Path_2177" fill="#FFFFFF"></path>
                        </g>
                    </g>
                </g>
            </g>
        </g>
    </g>
</svg>