<?xml version="1.0" encoding="UTF-8"?>
<svg width="50px" height="50px" viewBox="0 0 50 50" version="1.1" xmlns="http://www.w3.org/2000/svg" xmlns:xlink="http://www.w3.org/1999/xlink">
    <!-- Generator: Sketch 54.1 (76490) - https://sketchapp.com -->
    <title>icn_img_reddit</title>
    <desc>Created with Sketch.</desc>
    <g id="Page-1" stroke="none" stroke-width="1" fill="none" fill-rule="evenodd">
        <g id="BV-Phone-S1B-V2" transform="translate(-357.000000, -322.000000)" fill-rule="nonzero">
            <g id="Content" transform="translate(247.000000, 149.000000)">
                <g id="Left-content" transform="translate(35.000000, 30.000000)">
                    <g id="Ovals" transform="translate(15.000000, 78.000000)">
                        <g id="icn_img_reddit" transform="translate(60.000000, 65.000000)">
                            <rect id="Rectangle_34-4" fill="#F7571D" x="0" y="0" width="50" height="50" rx="25"></rect>
                            <path d="M39.7035891,24.2805068 C39.7047529,22.8968142 38.9128374,21.6360676 37.6690578,21.0414893 C36.4252782,20.4469109 34.9518731,20.62474 33.8836936,21.4983547 C31.4870049,20.0581453 28.7707511,19.2407619 25.9805597,19.1201196 L27.5251371,14.2139215 L31.7706451,15.2181426 C31.8791142,16.7116631 33.067546,17.8959969 34.5551276,17.9930234 C36.0427092,18.09005 37.3736198,17.0700388 37.6734363,15.6031484 C37.9732528,14.1362581 37.1501063,12.6719694 35.7448131,12.1723362 C34.3395199,11.672703 32.7826863,12.2908217 32.0971693,13.6205814 L27.1646432,12.4540971 C26.7513346,12.3562114 26.332763,12.5948343 26.2044818,13.0014743 L24.2876252,19.0908704 C21.2881288,19.1147036 18.3475471,19.9300413 15.7605597,21.4551774 C14.7359573,20.6530125 13.3582864,20.4737146 12.1640165,20.987103 C10.9697465,21.5004914 10.1476653,22.6254105 10.017894,23.9238134 C9.88812262,25.2222162 10.4711751,26.4888538 11.5400088,27.2304933 C11.5005627,27.5157063 11.4806425,27.8033019 11.4803887,28.0912543 C11.4803887,30.5635046 12.9112719,32.8630455 15.508214,34.5678536 C18.2972293,36.283883 21.5167702,37.1625038 24.7867705,37.099995 C28.0567852,37.1626206 31.2763581,36.2839911 34.065327,34.5678536 C36.6629623,32.8651347 38.0931522,30.5655938 38.0931522,28.0912543 C38.0928312,27.828384 38.0761606,27.5657907 38.0432377,27.305009 C39.0754147,26.6486557 39.7017861,25.5076552 39.7035891,24.2805068 L39.7035891,24.2805068 Z M34.7502653,13.631724 C35.5029081,13.6321085 36.1127711,14.2452632 36.1125159,15.0013272 C36.1122607,15.7573911 35.5019839,16.3701302 34.749341,16.3700021 C33.9966981,16.369874 33.3866281,15.7569271 33.386628,15.0008631 C33.3877733,14.2451855 33.9973137,13.6328745 34.749572,13.631724 L34.7502653,13.631724 Z M18.4198949,26.4992644 C18.4326461,25.3721469 19.339512,24.4617775 20.4615378,24.4497341 C21.5774761,24.4642326 22.4739768,25.3781617 22.4719842,26.4992644 C22.4719842,27.6146502 21.5718767,28.5188491 20.4615378,28.5188491 C19.3451218,28.5212374 18.434707,27.6206588 18.4198949,26.4992644 L18.4198949,26.4992644 Z M29.7400943,32.4396291 C28.7057543,33.4772778 27.1112624,33.982174 24.8651086,33.982174 L24.8318322,33.982174 C22.5849851,33.982174 20.9911864,33.4779743 19.958233,32.4396291 C19.6414035,32.1213596 19.6414035,31.6053426 19.958233,31.287073 C20.2750624,30.9688034 20.7887445,30.9688034 21.1055739,31.287073 C21.8182425,32.002981 23.0376822,32.3518817 24.8318322,32.3518817 L24.8644153,32.3518817 C26.6578721,32.3518817 27.8780051,32.0036774 28.5920601,31.287073 C28.9088896,30.9688034 29.4225716,30.9688034 29.7394011,31.287073 C30.0562305,31.6053426 30.0562305,32.1213596 29.7394011,32.4396291 L29.7400943,32.4396291 Z M29.2686793,28.5188491 C28.1520305,28.5212465 27.2412144,27.6208824 27.2256499,26.4992644 C27.2387821,25.3717665 28.1462664,24.4613946 29.2686793,24.4497341 C30.3846176,24.4642326 31.2811183,25.3781617 31.2791257,26.4992644 C31.2791257,27.0348916 31.0673114,27.5485808 30.6902796,27.9273264 C30.3132477,28.306072 29.8018828,28.5188491 29.2686793,28.5188491 L29.2686793,28.5188491 Z" id="Path_2199" fill="#FFFFFF"></path>
                        </g>
                    </g>
                </g>
            </g>
        </g>
    </g>
</svg>