<?xml version="1.0" encoding="UTF-8"?>
<svg width="13px" height="15px" viewBox="0 0 13 15" version="1.1" xmlns="http://www.w3.org/2000/svg" xmlns:xlink="http://www.w3.org/1999/xlink">
    <!-- Generator: Sketch 54.1 (76490) - https://sketchapp.com -->
    <title>icn_img_social</title>
    <desc>Created with Sketch.</desc>
    <g id="Page-1" stroke="none" stroke-width="1" fill="none" fill-rule="evenodd" opacity="0.601696">
        <g id="BV-Phone-S6-V2" transform="translate(-255.000000, -139.000000)" fill="#FFFFFF" fill-rule="nonzero">
            <g id="Social-Content" transform="translate(247.000000, 134.000000)">
                <path d="M17.6249771,14.5000083 C18.3541421,14.5000083 18.973932,14.7552159 19.4843476,15.2656315 C19.9947632,15.7760471 20.2499708,16.395837 20.2499708,17.1250021 C20.2499708,17.8541672 19.9947632,18.4739571 19.4843476,18.9843727 C18.973932,19.4947882 18.3541421,19.7499958 17.6249771,19.7499958 C16.895812,19.7499958 16.2760221,19.4947882 15.7656065,18.9843727 C15.2551909,18.4739571 14.9999833,17.8541672 14.9999833,17.1250021 C14.9999833,16.9244819 15.0182126,16.7330761 15.0546707,16.5507847 L12.2656148,14.8007889 C11.7916578,15.1836005 11.2447841,15.3750063 10.6249937,15.3750063 C9.89582867,15.3750063 9.27603876,15.1197987 8.76562317,14.6093831 C8.25520759,14.0989675 8,13.4791776 8,12.7500125 C8,12.0208474 8.25520759,11.4010575 8.76562317,10.890642 C9.27603876,10.3802264 9.89582867,10.1250188 10.6249937,10.1250188 C11.2447841,10.1250188 11.7916578,10.3164246 12.2656148,10.6992362 L15.0546707,8.94924033 C15.0182126,8.76694896 14.9999833,8.57554316 14.9999833,8.37502295 C14.9999833,7.64585788 15.2551909,7.02606797 15.7656065,6.51565238 C16.2760221,6.00523679 16.895812,5.75002921 17.6249771,5.75002921 C18.3541421,5.75002921 18.973932,6.00523679 19.4843476,6.51565238 C19.9947632,7.02606797 20.2499708,7.64585788 20.2499708,8.37502295 C20.2499708,9.10418802 19.9947632,9.72397793 19.4843476,10.2343935 C18.973932,10.7448091 18.3541421,11.0000167 17.6249771,11.0000167 C17.0051867,11.0000167 16.458313,10.8086109 15.984356,10.4257993 L13.1953001,12.1757951 C13.2682167,12.5586067 13.2682167,12.9414183 13.1953001,13.3242299 L15.984356,15.0742257 C16.458313,14.6914141 17.0051867,14.5000083 17.6249771,14.5000083 Z" id="icn_img_social"></path>
            </g>
        </g>
    </g>
</svg>