<?xml version="1.0" encoding="UTF-8"?>
<svg width="50px" height="50px" viewBox="0 0 50 50" version="1.1" xmlns="http://www.w3.org/2000/svg" xmlns:xlink="http://www.w3.org/1999/xlink">
    <!-- Generator: Sketch 54.1 (76490) - https://sketchapp.com -->
    <title>icn_img_youtube</title>
    <desc>Created with Sketch.</desc>
    <g id="Page-1" stroke="none" stroke-width="1" fill="none" fill-rule="evenodd">
        <g id="BV-Phone-S1B-V2" transform="translate(-417.000000, -322.000000)" fill-rule="nonzero">
            <g id="Content" transform="translate(247.000000, 149.000000)">
                <g id="Left-content" transform="translate(35.000000, 30.000000)">
                    <g id="Ovals" transform="translate(15.000000, 78.000000)">
                        <g id="icn_img_youtube" transform="translate(120.000000, 65.000000)">
                            <path d="M24.9996515,50 L24.9996515,50 C11.1927252,50 0,38.8071187 0,25 L0,25 C0,11.1928813 11.1927252,0 24.9996515,0 L24.9996515,0 C31.630092,-0.000184885063 37.9890303,2.6336545 42.6775252,7.322084 C47.36602,12.0105135 50,18.369467 50,25 L50,25 C50,31.630533 47.36602,37.9894865 42.6775252,42.677916 C37.9890303,47.3663455 31.630092,50.0001849 24.9996515,50 Z" id="Path_2173" fill="#C3271A"></path>
                            <g id="Group_990" transform="translate(5.000000, 11.000000)">
                                <path d="M38.7238372,4.81897181 C38.2692317,3.09274096 36.9374976,1.74116349 35.2285331,1.27158631 C32.1450894,0.43335328 19.7816995,0.43335328 19.7816995,0.43335328 C19.7816995,0.43335328 7.41830948,0.43335328 4.33555456,1.27158631 C2.62659004,1.74116349 1.29485592,3.09274096 0.840250447,4.81897181 C0.0137745975,7.94828251 0.0137745975,14.4770552 0.0137745975,14.4770552 C0.0137745975,14.4770552 0.0137745975,21.0051335 0.840250447,24.1351387 C1.29485592,25.8613695 2.62659004,27.212947 4.33555456,27.6825242 C7.41830948,28.5207572 19.7816995,28.5207572 19.7816995,28.5207572 C19.7816995,28.5207572 32.1450894,28.5207572 35.2285331,27.6825242 C36.9374976,27.212947 38.2692317,25.8613695 38.7238372,24.1351387 C39.5503131,21.005828 39.5503131,14.4770552 39.5503131,14.4770552 C39.5503131,14.4770552 39.5503131,7.94828251 38.7238372,4.81897181 Z" id="Path_2174" fill="#FFFFFF"></path>
                                <polygon id="Path_2175" fill="#C3271A" points="15.7388551 20.4044114 15.7388551 8.54969908 26.0698032 14.4777497"></polygon>
                            </g>
                        </g>
                    </g>
                </g>
            </g>
        </g>
    </g>
</svg>