<?xml version="1.0" encoding="UTF-8"?>
<svg width="50px" height="50px" viewBox="0 0 50 50" version="1.1" xmlns="http://www.w3.org/2000/svg" xmlns:xlink="http://www.w3.org/1999/xlink">
    <!-- Generator: Sketch 54.1 (76490) - https://sketchapp.com -->
    <title>icn_img_contact_info</title>
    <desc>Created with Sketch.</desc>
    <g id="Page-1" stroke="none" stroke-width="1" fill="none" fill-rule="evenodd">
        <g id="BV-Phone-S3-V2" transform="translate(-298.000000, -470.000000)">
            <g id="Content" transform="translate(247.000000, 174.000000)">
                <g id="Left-Content" transform="translate(31.000000, 40.000000)">
                    <g id="Card3" transform="translate(0.000000, 246.000000)">
                        <g id="icn_img_contact_info" transform="translate(20.000000, 10.000000)">
                            <circle id="background" fill="#353167" cx="25" cy="25" r="25"></circle>
                            <g id="Group" transform="translate(11.250000, 11.500000)">
                                <path d="M27.2522523,12.7734375 C27.2522523,11.0251797 26.1966533,9.52642969 24.6901147,8.87072656 C24.6539203,8.43430078 24.2919764,8.08984375 23.8457207,8.08984375 C23.3756194,8.08984375 22.9940878,8.47134375 22.9940878,8.94140625 L22.9940878,16.6919023 C22.9940878,17.1623906 23.3756194,17.5434648 23.8457207,17.5434648 L23.8457207,23.84375 C23.8457207,24.7830234 23.081806,25.546875 22.142455,25.546875 L5.1097973,25.546875 C4.17044623,25.546875 3.40653153,24.7830234 3.40653153,23.84375 L3.40653153,17.5434648 C3.87663288,17.5434648 4.25816441,17.1623906 4.25816441,16.6919023 L4.25816441,8.94140625 C4.25816441,8.47134375 3.87663288,8.08984375 3.40653153,8.08984375 C2.9602759,8.08984375 2.59833193,8.43430078 2.56213753,8.87072656 C1.05559896,9.52642969 0,11.0251797 0,12.7734375 C0,14.1631875 0.671086712,15.3958242 1.70326577,16.172875 L1.70326577,23.84375 C1.70326577,25.7218711 3.23152097,27.25 5.1097973,27.25 L22.142455,27.25 C24.0207313,27.25 25.5489865,25.7218711 25.5489865,23.84375 L25.5489865,16.172875 C26.5811655,15.3958242 27.2522523,14.1631875 27.2522523,12.7734375" id="Fill-541" fill="#666666"></path>
                                <polygon id="Fill-542" fill="#FFFFFF" points="22.142455 23.4179688 5.1097973 23.4179688 5.1097973 0 22.142455 0"></polygon>
                                <path d="M18.7359234,3.19335938 C18.7359234,3.310875 18.6405405,3.40625 18.5230152,3.40625 L13.8390343,3.40625 C13.721509,3.40625 13.6261261,3.310875 13.6261261,3.19335938 C13.6261261,3.07584375 13.721509,2.98046875 13.8390343,2.98046875 L18.5230152,2.98046875 C18.6405405,2.98046875 18.7359234,3.07584375 18.7359234,3.19335938" id="Fill-543" fill="#E2E4E5"></path>
                                <path d="M18.7359234,4.89648438 C18.7359234,5.014 18.6405405,5.109375 18.5230152,5.109375 L13.8390343,5.109375 C13.721509,5.109375 13.6261261,5.014 13.6261261,4.89648438 C13.6261261,4.77896875 13.721509,4.68359375 13.8390343,4.68359375 L18.5230152,4.68359375 C18.6405405,4.68359375 18.7359234,4.77896875 18.7359234,4.89648438" id="Fill-544" fill="#E2E4E5"></path>
                                <path d="M18.7359234,6.59960938 C18.7359234,6.717125 18.6405405,6.8125 18.5230152,6.8125 L13.8390343,6.8125 C13.721509,6.8125 13.6261261,6.717125 13.6261261,6.59960938 C13.6261261,6.48209375 13.721509,6.38671875 13.8390343,6.38671875 L18.5230152,6.38671875 C18.6405405,6.38671875 18.7359234,6.48209375 18.7359234,6.59960938" id="Fill-545" fill="#E2E4E5"></path>
                                <polygon id="Fill-546" fill="#9CE5F4" points="11.9228604 2.16424609 7.2388795 2.16424609 7.2388795 7.23828125 11.9228604 7.23828125"></polygon>
                                <path d="M10.1980057,5.72471406 C10.4241142,5.46285859 10.5565431,5.14863203 10.5565431,4.31112031 C10.5565431,3.87980391 10.1664953,3.33522969 9.58099768,3.33522969 C8.99550007,3.33522969 8.60502639,3.87980391 8.60502639,4.31112031 C8.60502639,5.14437422 8.78727583,5.45604609 9.01338436,5.71875313 C8.35379469,5.81114766 7.74828371,6.05937813 7.23900725,6.42384688 L7.23900725,7.23836641 L11.9229881,7.23836641 L11.9229881,6.42384688 C11.4260603,6.06831953 10.8384336,5.82264375 10.1980057,5.72471406" id="Fill-547" fill="#0484AB"></path>
                                <path d="M7.2388795,6.42367656 C7.74858178,6.05963359 8.35366695,5.81140313 9.01325662,5.71900859 C8.78714809,5.45630156 8.60489865,5.14462969 8.60489865,4.31095 C8.60489865,3.88005938 8.99537233,3.33548516 9.58086993,3.33548516 C10.065449,3.33548516 10.4154702,3.70804375 10.5219243,4.08102812 L11.9228604,2.16458672 L7.2388795,2.16458672 L7.2388795,6.42367656 Z" id="Fill-548" fill="#C9F2F8"></path>
                                <path d="M9.58086993,3.33527227 C8.99537233,3.33527227 8.60489865,3.87984648 8.60489865,4.31116289 C8.60489865,5.1444168 8.78714809,5.45608867 9.01325662,5.7187957 C8.35366695,5.81119023 7.74858178,6.0594207 7.2388795,6.42346367 L7.2388795,7.23840898 L8.21485079,7.23840898 L10.5219243,4.08124102 C10.4154702,3.70825664 10.065449,3.33527227 9.58086993,3.33527227" id="Fill-549" fill="#059BBF"></path>
                                <path d="M23.8457207,8.08984375 C23.3756194,8.08984375 22.9940878,8.47134375 22.9940878,8.94140625 L22.9940878,11.921875 L4.25816441,11.921875 L4.25816441,8.94140625 C4.25816441,8.47134375 3.87663288,8.08984375 3.40653153,8.08984375 C2.93643018,8.08984375 2.55489865,8.47134375 2.55489865,8.94140625 L2.55489865,16.6919023 C2.55489865,17.1623906 2.93643018,17.5434648 3.40653153,17.5434648 C3.87663288,17.5434648 4.25816441,17.1623906 4.25816441,16.6919023 L4.25816441,13.625 L22.9940878,13.625 L22.9940878,16.6919023 C22.9940878,17.1623906 23.3756194,17.5434648 23.8457207,17.5434648 C24.3158221,17.5434648 24.6973536,17.1623906 24.6973536,16.6919023 L24.6973536,8.94140625 C24.6973536,8.47134375 24.3158221,8.08984375 23.8457207,8.08984375" id="Fill-550" fill="#666666"></path>
                                <path d="M2.55489865,8.94140625 C2.55489865,8.91713672 2.56000845,8.89457031 2.56213753,8.87072656 C1.05559896,9.52642969 0,11.0251797 0,12.7734375 C0,14.5161602 1.05432151,16.0110781 2.55489865,16.6697617 L2.55489865,8.94140625 Z" id="Fill-551" fill="#DF2C2C"></path>
                                <path d="M2.56205236,8.87051367 C1.0555138,9.5262168 -8.51632883e-05,11.0253926 -8.51632883e-05,12.7736504 L2.55481349,12.7736504 L2.55481349,8.94161914 C2.55481349,8.91692383 2.55992328,8.89435742 2.56205236,8.87051367" id="Fill-552" fill="#FA5655"></path>
                                <path d="M24.6973536,8.94140625 C24.6973536,8.91713672 24.6922438,8.89457031 24.6901147,8.87072656 C26.1966533,9.52642969 27.2522523,11.0251797 27.2522523,12.7734375 C27.2522523,14.5161602 26.1979307,16.0110781 24.6973536,16.6697617 L24.6973536,8.94140625 Z" id="Fill-553" fill="#DF2C2C"></path>
                                <path d="M24.6901999,8.87051367 C26.1967385,9.5262168 27.2523374,11.0253926 27.2523374,12.7736504 L24.6974388,12.7736504 L24.6974388,8.94161914 C24.6974388,8.91692383 24.692329,8.89435742 24.6901999,8.87051367" id="Fill-554" fill="#FA5655"></path>
                                <path d="M3.40653153,8.08984375 C2.93643018,8.08984375 2.55489865,8.47134375 2.55489865,8.94140625 L2.55489865,12.7734375 L4.25816441,12.7734375 L4.25816441,8.94140625 C4.25816441,8.47134375 3.87663288,8.08984375 3.40653153,8.08984375" id="Fill-555" fill="#999999"></path>
                                <path d="M23.8457207,8.08984375 C24.3158221,8.08984375 24.6973536,8.47134375 24.6973536,8.94140625 L24.6973536,12.7734375 L22.9940878,12.7734375 L22.9940878,8.94140625 C22.9940878,8.47134375 23.3756194,8.08984375 23.8457207,8.08984375" id="Fill-556" fill="#999999"></path>
                                <path d="M11.0712275,15.328125 C11.0712275,15.7986133 10.6901218,16.1796875 10.2195946,16.1796875 C9.74906743,16.1796875 9.36796171,15.7986133 9.36796171,15.328125 L9.36796171,10.21875 C9.36796171,9.74826172 9.74906743,9.3671875 10.2195946,9.3671875 C10.6901218,9.3671875 11.0712275,9.74826172 11.0712275,10.21875 L11.0712275,15.328125 Z" id="Fill-557" fill="#B5BBBD"></path>
                                <path d="M17.8842905,15.328125 C17.8842905,15.7986133 17.5031848,16.1796875 17.0326577,16.1796875 C16.5621305,16.1796875 16.1810248,15.7986133 16.1810248,15.328125 L16.1810248,10.21875 C16.1810248,9.74826172 16.5621305,9.3671875 17.0326577,9.3671875 C17.5031848,9.3671875 17.8842905,9.74826172 17.8842905,10.21875 L17.8842905,15.328125 Z" id="Fill-558" fill="#B5BBBD"></path>
                                <path d="M10.2195946,9.3671875 C9.74949324,9.3671875 9.36796171,9.7486875 9.36796171,10.21875 L9.36796171,12.7734375 L11.0712275,12.7734375 L11.0712275,10.21875 C11.0712275,9.7486875 10.6896959,9.3671875 10.2195946,9.3671875" id="Fill-559" fill="#E2E4E5"></path>
                                <path d="M17.0326577,9.3671875 C16.5625563,9.3671875 16.1810248,9.7486875 16.1810248,10.21875 L16.1810248,12.7734375 L17.8842905,12.7734375 L17.8842905,10.21875 C17.8842905,9.7486875 17.502759,9.3671875 17.0326577,9.3671875" id="Fill-560" fill="#E2E4E5"></path>
                            </g>
                        </g>
                    </g>
                </g>
            </g>
        </g>
    </g>
</svg>