<?xml version="1.0" encoding="UTF-8"?>
<svg width="50px" height="50px" viewBox="0 0 50 50" version="1.1" xmlns="http://www.w3.org/2000/svg" xmlns:xlink="http://www.w3.org/1999/xlink">
    <!-- Generator: Sketch 54.1 (76490) - https://sketchapp.com -->
    <title>icn_img_soundcloud</title>
    <desc>Created with Sketch.</desc>
    <g id="Page-1" stroke="none" stroke-width="1" fill="none" fill-rule="evenodd">
        <g id="BV-Phone-S1B-V2" transform="translate(-537.000000, -387.000000)" fill-rule="nonzero">
            <g id="Content" transform="translate(247.000000, 149.000000)">
                <g id="Left-content" transform="translate(35.000000, 30.000000)">
                    <g id="Ovals" transform="translate(15.000000, 78.000000)">
                        <g id="icn_img_soundcloud" transform="translate(240.000000, 130.000000)">
                            <rect id="Rectangle_34-3" fill="#FF7E00" x="0" y="0" width="50" height="50" rx="25"></rect>
                            <g id="Group_1024" transform="translate(9.506937, 17.393878)" fill="#FFFFFF">
                                <path d="M1.25629792,7.97741942 C1.25051628,7.9054616 1.1924475,7.84929307 1.12121212,7.8467542 C1.04891717,7.84668003 0.989379561,7.90426932 0.986126323,7.97741942 L0.671376415,10.8848916 L0.986126323,13.7280572 C0.998215343,13.7926442 1.05394502,13.8393946 1.11884812,13.8393946 C1.18375122,13.8393946 1.2394809,13.7926442 1.25156992,13.7280572 L1.60954728,10.8848916 L1.25629792,7.97741942 Z" id="Path_2200"></path>
                                <path d="M6.20719241,5.29570395 C6.07558073,5.2978517 5.96898792,5.40460839 5.96538883,5.53787927 L5.7154801,10.887628 L5.96538883,14.3458096 C5.96538883,14.4810706 6.07364798,14.5907213 6.20719241,14.5907213 C6.34073683,14.5907213 6.44899598,14.4810706 6.44899598,14.3458096 L6.44899598,14.3458096 L6.73267616,10.887628 L6.44899598,5.53787927 C6.44505632,5.40475824 6.33865996,5.29819831 6.20719241,5.29570395 L6.20719241,5.29570395 Z" id="Path_2201"></path>
                                <path d="M3.64529025,7.15511789 C3.54363578,7.15719549 3.46110593,7.23898855 3.45684556,7.34188022 L3.17519168,10.8869439 L3.45684556,14.3163928 C3.45684561,14.4214279 3.54091276,14.5065756 3.64461482,14.5065756 C3.74831689,14.5065756 3.83238403,14.4214279 3.83238408,14.3163928 L4.15253742,10.8869439 L3.83238408,7.34119611 C3.82749663,7.23923211 3.74603254,7.15821023 3.64529025,7.15511789 Z" id="Path_2202"></path>
                                <path d="M8.81164659,14.5859326 C8.9736181,14.584496 9.1051934,14.4530467 9.10883534,14.2890283 L9.35401606,10.8896803 L9.10883534,3.76808388 C9.10883534,3.60221909 8.9760818,3.46775912 8.81232202,3.46775912 C8.64856223,3.46775912 8.51580869,3.60221909 8.51580869,3.76808388 L8.29899598,10.8896803 L8.51580869,14.2897125 C8.5190906,14.453243 8.65016441,14.5844861 8.81164659,14.5859326 Z" id="Path_2203"></path>
                                <path d="M14.1441585,14.6044036 C14.3669093,14.6018164 14.5468615,14.4195511 14.5494158,14.1939369 L14.5494158,14.1939369 L14.7209748,10.8924168 L14.5494158,2.66666503 C14.5494158,2.43997061 14.3679759,2.25619851 14.1441585,2.25619851 C13.920341,2.25619851 13.7389011,2.43997061 13.7389011,2.66666503 L13.5862541,10.8883121 C13.5862541,10.8944691 13.7389011,14.194621 13.7389011,14.194621 C13.7421737,14.4198161 13.9218162,14.6014645 14.1441585,14.6044036 L14.1441585,14.6044036 Z" id="Path_2204"></path>
                                <path d="M11.4579774,14.5893531 C11.6506695,14.5875115 11.8066397,14.4301441 11.8092004,14.2349836 L11.8092004,14.2349836 L12.017908,10.887628 L11.808525,3.71403911 C11.808525,3.51757056 11.6512771,3.35830134 11.4573019,3.35830134 C11.2633268,3.35830134 11.1060789,3.51757056 11.1060789,3.71403911 L10.9210113,10.887628 L11.1074297,14.2342995 C11.1081703,14.4300786 11.2646828,14.588603 11.4579774,14.5893531 L11.4579774,14.5893531 Z" id="Path_2205"></path>
                                <path d="M27.6135633,6.64613924 C27.0913443,6.64566596 26.5742627,6.75055116 26.0924973,6.95467334 C25.7738952,3.33007162 22.7762901,0.551274668 19.1835341,0.550025316 C18.3234501,0.552378912 17.4711056,0.714697079 16.668912,1.02890308 C16.3717233,1.14520196 16.2926981,1.26423729 16.2899963,1.49683507 L16.2899963,14.1357875 C16.2949358,14.3781793 16.4762924,14.5794169 16.7141658,14.6064559 C16.7249726,14.6064559 27.5433187,14.613297 27.6128879,14.613297 C29.7846635,14.613297 31.5452355,12.8300943 31.5452355,10.6304022 C31.5452355,8.43071019 29.7846635,6.64750746 27.6128879,6.64750746 L27.6135633,6.64613924 Z" id="Path_2206"></path>
                            </g>
                        </g>
                    </g>
                </g>
            </g>
        </g>
    </g>
</svg>