<?xml version="1.0" encoding="UTF-8"?>
<svg width="50px" height="50px" viewBox="0 0 50 50" version="1.1" xmlns="http://www.w3.org/2000/svg" xmlns:xlink="http://www.w3.org/1999/xlink">
    <!-- Generator: Sketch 54.1 (76490) - https://sketchapp.com -->
    <title>icn_img_whatsapp</title>
    <desc>Created with Sketch.</desc>
    <g id="Page-1" stroke="none" stroke-width="1" fill="none" fill-rule="evenodd">
        <g id="BV-Phone-S1B-V2" transform="translate(-537.000000, -322.000000)">
            <g id="Content" transform="translate(247.000000, 149.000000)">
                <g id="Left-content" transform="translate(35.000000, 30.000000)">
                    <g id="Ovals" transform="translate(15.000000, 78.000000)">
                        <g id="icn_img_whatsapp" transform="translate(240.000000, 65.000000)">
                            <path d="M24.9996515,50 L24.9996515,50 C11.1926124,49.999615 -5.36728372e-09,38.8066905 0,24.9996515 L0,24.9996515 C0,11.1927252 11.1927252,0 24.9996515,0 L24.9996515,0 C31.630092,-0.000184882486 37.9890303,2.63361779 42.6775252,7.32198192 C47.36602,12.0103461 50,18.3692109 50,24.9996515 L50,24.9996515 C50,31.6301561 47.3660423,37.9890926 42.6775674,42.6775674 C37.9890926,47.3660423 31.6301561,50 24.9996515,50 Z" id="Path_2170" fill="#57F676" fill-rule="nonzero"></path>
                            <g id="Group_988" transform="translate(11.000000, 11.000000)" fill="#FFFFFF">
                                <path d="M27.0883258,13.3116923 C26.8528417,6.14880458 21.0498348,0.445929447 13.9301641,0.380576812 C6.81049342,0.315224176 0.905128956,5.91062623 0.539909502,13.068 C0.533719457,13.2618462 0.527529412,13.4563846 0.527529412,13.6502308 C0.525094326,16.0673393 1.18349393,18.4385134 2.43062443,20.5040769 L0.0350769231,27.6230769 L7.39435294,25.2692308 C11.4968298,27.536605 16.4812773,27.4668282 20.5195253,25.0854929 C24.5577732,22.7041576 27.0554913,18.3617374 27.0965792,13.6509231 C27.0945158,13.5373846 27.0945158,13.4245385 27.0883258,13.3116923 Z M13.8141176,24.804 C11.6301911,24.8087128 9.49318435,24.1663305 7.66946606,22.9569231 L3.37838914,24.3339231 L4.7718371,20.1904615 C3.38864461,18.2936489 2.64334157,16.0017964 2.64452489,13.6488462 C2.64471964,13.2872024 2.66331413,12.9258061 2.70023529,12.5660769 C3.30111959,6.79936356 8.15886235,2.43754103 13.9190508,2.49257479 C19.6792392,2.54760855 24.453853,7.00146015 24.9458824,12.7786154 C24.9706425,13.0666154 24.9830226,13.3546154 24.9830226,13.6488462 C24.9508155,19.8318415 19.9533239,24.8222632 13.8106787,24.8053846 L13.8141176,24.804 Z" id="Path_2171"></path>
                                <path d="M19.8989321,16.3294615 C19.5694842,16.1667692 17.9731403,15.3775385 17.6725792,15.2716154 C17.3720181,15.1656923 17.1560543,15.1089231 16.9387149,15.4343077 C16.7213756,15.7596923 16.0927421,16.4921538 15.9070407,16.7046923 C15.7213394,16.9172308 15.5280724,16.9490769 15.1979367,16.7863846 C14.2381156,16.4064983 13.3520761,15.8598011 12.5802353,15.1712308 C11.8689999,14.5170838 11.25885,13.7596459 10.769991,12.924 C10.5836018,12.5986154 10.7514208,12.4227692 10.9130498,12.2600769 C11.0622986,12.1105385 11.2369955,11.8786154 11.4041267,11.691 C11.4481448,11.6342308 11.4852851,11.5843846 11.5224253,11.5345385 C11.5988777,11.4093583 11.6677804,11.2796625 11.7287602,11.1461538 C11.8183338,10.9645685 11.8089834,10.7494036 11.704,10.5763846 C11.6228416,10.4136923 10.9701357,8.811 10.6963982,8.16023077 C10.4226606,7.50946154 10.1551131,7.62161538 9.96253394,7.62161538 C9.76995475,7.62161538 9.55811765,7.59046154 9.34352941,7.59046154 C9.00977597,7.59880247 8.69443817,7.74622624 8.47279638,7.99753846 C7.72986468,8.70105991 7.3165047,9.68758305 7.33451584,10.7141538 C7.34049724,11.0893193 7.3969504,11.4619394 7.50233484,11.8218462 C7.75786535,12.6349516 8.15135983,13.3973709 8.66537557,14.0753077 C8.82700452,14.2878462 10.9164887,17.6808462 14.224724,18.9906923 C17.5398371,20.286 17.5398371,19.854 18.1368326,19.7979231 C19.0554025,19.6242862 19.8552697,19.0610487 20.3322353,18.252 C20.5467235,17.7669079 20.6137324,17.2287546 20.5248145,16.7053846 C20.4395294,16.5731538 20.2208145,16.4921538 19.8989321,16.3294615 Z" id="Path_2172"></path>
                            </g>
                        </g>
                    </g>
                </g>
            </g>
        </g>
    </g>
</svg>