<?xml version="1.0" encoding="UTF-8"?>
<svg width="50px" height="50px" viewBox="0 0 50 50" version="1.1" xmlns="http://www.w3.org/2000/svg" xmlns:xlink="http://www.w3.org/1999/xlink">
    <!-- Generator: Sketch 54.1 (76490) - https://sketchapp.com -->
    <title>icn_img_pinterest</title>
    <desc>Created with Sketch.</desc>
    <g id="Page-1" stroke="none" stroke-width="1" fill="none" fill-rule="evenodd">
        <g id="BV-Phone-S1B-V2" transform="translate(-297.000000, -322.000000)" fill-rule="nonzero">
            <g id="Content" transform="translate(247.000000, 149.000000)">
                <g id="Left-content" transform="translate(35.000000, 30.000000)">
                    <g id="Ovals" transform="translate(15.000000, 78.000000)">
                        <g id="icn_img_pinterest" transform="translate(0.000000, 65.000000)">
                            <path d="M24.9996515,50 L24.9996515,50 C18.3692109,50 12.0103461,47.3660567 7.32198192,42.6776272 C2.63361779,37.9891977 -0.000184882486,31.6303481 0,25 L0,25 C-0.000184882486,18.3696519 2.63361779,12.0108023 7.32198192,7.32237275 C12.0103461,2.63394325 18.3692109,-2.57755995e-09 24.9996515,0 L24.9996515,0 C38.8069627,0 50,11.1928813 50,25 L50,25 C50,38.8071187 38.8069627,50 24.9996515,50 Z" id="Path_2190" fill="#CD2129"></path>
                            <path d="M17.4698462,27.0781643 C17.6360447,27.165851 17.8342191,27.168047 18.0023135,27.0840645 C18.1704079,27.0000819 18.2878719,26.8401883 18.3179231,26.6544522 C18.3954615,26.3569522 18.581,25.6052273 18.6640769,25.2924709 C18.7995098,24.9578868 18.7002385,24.5739362 18.4196923,24.3472669 C17.6497064,23.4140027 17.2519104,22.2282399 17.303,21.0185956 C17.2765996,18.8157174 18.1542931,16.6985977 19.7307739,15.1624646 C21.3072547,13.6263316 23.4442369,12.8059319 25.6418462,12.8931702 C30.1903077,12.8931702 32.6895385,15.677465 32.6895385,19.3958683 C32.6895385,24.2876282 30.5281538,28.4158741 27.3193077,28.4158741 C26.4884175,28.4581294 25.6868433,28.1027478 25.1593975,27.4582682 C24.6319518,26.8137887 24.4412797,25.9567564 24.6456154,25.1489219 C25.1558462,22.999155 26.141,20.6794872 26.141,19.1274942 C26.141,17.7405478 25.3967692,16.5803671 23.8563846,16.5803671 C22.0446154,16.5803671 20.5893846,18.4575991 20.5893846,20.9721329 C20.5780129,21.895182 20.7623021,22.8101426 21.1300769,23.6565676 C21.1300769,23.6565676 19.2767692,31.5247145 18.9513846,32.9019522 C18.5677696,35.0331276 18.5506773,37.214308 18.9008462,39.3512529 C18.9156667,39.4403167 18.9821222,39.511924 19.0697203,39.5332185 C19.1573184,39.5545131 19.2491492,39.5213841 19.3030769,39.4490326 C20.6406805,37.792961 21.6756647,35.9131898 22.3603077,33.8963928 C22.568,33.1418939 23.5531538,29.233479 23.5531538,29.233479 C24.1409231,30.3575991 25.8613077,31.3471853 27.6896923,31.3471853 C33.1353846,31.3471853 36.8281538,26.375676 36.8281538,19.7197203 C36.8281538,14.6871853 32.5739231,10 26.1056923,10 C18.0583077,10 14,15.7794056 14,20.5990443 C14.0006923,23.5185664 15.1042308,26.1114627 17.4698462,27.0781643 Z" id="Path_2191" fill="#FFFFFF"></path>
                        </g>
                    </g>
                </g>
            </g>
        </g>
    </g>
</svg>