<?xml version="1.0" encoding="UTF-8"?>
<svg width="50px" height="50px" viewBox="0 0 50 50" version="1.1" xmlns="http://www.w3.org/2000/svg" xmlns:xlink="http://www.w3.org/1999/xlink">
    <!-- Generator: Sketch 54.1 (76490) - https://sketchapp.com -->
    <title>icn_img_snapchat</title>
    <desc>Created with Sketch.</desc>
    <g id="Page-1" stroke="none" stroke-width="1" fill="none" fill-rule="evenodd">
        <g id="BV-Phone-S1B-V2" transform="translate(-537.000000, -257.000000)">
            <g id="Content" transform="translate(247.000000, 149.000000)">
                <g id="Left-content" transform="translate(35.000000, 30.000000)">
                    <g id="Ovals" transform="translate(15.000000, 78.000000)">
                        <g id="icn_img_snapchat" transform="translate(240.000000, 0.000000)">
                            <rect id="Rectangle_33" fill="#FAF807" fill-rule="nonzero" x="0" y="0" width="50" height="50" rx="25"></rect>
                            <path d="M40.066561,31.8973581 L40.066561,31.8911273 C40.0596379,31.8835119 40.0527149,31.8835119 40.039561,31.8703581 L40.0326379,31.8703581 C39.7391457,31.7158891 39.4258358,31.6024453 39.1014841,31.5332042 C39.094561,31.5332042 39.0876379,31.5332042 39.0876379,31.5262812 C37.5605654,31.0048795 36.2270917,30.0334348 35.2626379,28.7397427 C34.7142918,28.0481919 34.2731939,27.2780209 33.9541764,26.4551273 L33.9541764,26.4412812 C33.817038,26.1255989 33.8344348,25.7641048 34.0012533,25.4630504 C34.0030331,25.4630614 34.0047326,25.4623108 34.0059232,25.4609879 C34.0071138,25.459665 34.0076819,25.4578961 34.0074841,25.4561273 C34.3552652,25.0553467 34.8123945,24.7647087 35.3228687,24.6198196 L35.3304841,24.6198196 C35.9789693,24.4347835 36.5842261,24.1227421 37.1110995,23.7018196 C37.1180226,23.7018196 37.1180226,23.6948965 37.1249456,23.6948965 C37.2316602,23.6031573 37.3187809,23.4908422 37.3810995,23.3646658 C37.3995297,23.326132 37.413021,23.2854255 37.4212533,23.2435119 C37.4674937,23.0893626 37.4556722,22.9236152 37.3880226,22.7775888 L37.3880226,22.7713581 C37.2461486,22.5141549 37.0286304,22.3067876 36.7649456,22.1773581 L36.7580226,22.1773581 C36.4334304,21.992619 36.0445204,21.9582513 35.692561,22.0832042 L35.6856379,22.0832042 C35.3778095,22.197715 35.062249,22.2902547 34.7413303,22.3601273 C34.7337201,22.3592113 34.7260996,22.3617514 34.720561,22.3670504 C34.3664011,22.4472169 33.9978534,22.4379378 33.6481764,22.3400504 C33.6412533,22.2992042 33.6412533,22.2112812 33.6280995,22.1039735 L33.6343303,22.1039735 C33.6073303,21.4559735 33.6682533,20.7885888 33.6751764,20.0962812 L33.6751764,20.0893581 C33.7421759,19.014128 33.7150728,17.9350994 33.5941764,16.8645888 L33.5941764,16.8507427 C33.2036265,15.0228544 32.120326,13.4172572 30.571561,12.3708196 C29.4757127,11.6161668 28.2008755,11.162573 26.8746379,11.055435 L26.8746379,11.055435 C26.4218687,11.0145888 25.9836379,11.001435 25.5454072,11.001435 C23.7302781,10.9676343 21.9544171,11.5317742 20.491561,12.6068965 C19.4137216,13.4535058 18.5665691,14.5580422 18.0283303,15.8185119 L18.0283303,15.825435 C17.6110532,17.0873184 17.4751783,18.425273 17.6302533,19.7452812 L17.6302533,19.7452812 C17.710642,20.6017316 17.7309995,21.4627577 17.6911764,22.3220504 C17.6880847,22.3405681 17.6836892,22.3588443 17.6780226,22.3767427 C17.2567057,22.4426191 16.8269079,22.4311234 16.4097149,22.3428196 L16.4027918,22.3428196 C16.0751368,22.2701456 15.7515987,22.1800171 15.433561,22.0728196 C15.4259508,22.0737356 15.4183303,22.0711955 15.4127918,22.0658965 C15.081586,21.9968689 14.7367462,22.0757472 14.4684841,22.2818965 C14.461561,22.2818965 14.4546379,22.2818965 14.4546379,22.2888196 C14.4546379,22.2957427 14.4414841,22.2957427 14.4414841,22.3019735 C14.1467224,22.4545743 13.9505489,22.7473977 13.921561,23.0780504 C13.9184477,23.1026446 13.9184477,23.1275331 13.921561,23.1521273 C13.9291764,23.1521273 13.921561,23.1590504 13.9291764,23.1590504 C13.9715182,23.3670769 14.0860332,23.5534395 14.2524841,23.6852042 C14.3874841,23.8001273 14.5086379,23.8742042 14.5834072,23.9351273 C14.5896379,23.9351273 14.596561,23.9413581 14.6034841,23.9482812 C15.2318108,24.3112724 15.8996177,24.6011587 16.5938687,24.8122812 L16.5938687,24.8122812 C17.0035403,24.9471014 17.3306067,25.2594168 17.4841764,25.662435 C17.5381007,26.194928 17.4147154,26.730328 17.1331764,27.1855119 L17.1331764,27.192435 C16.4282185,28.57883 15.3897957,29.7683177 14.1112533,30.6539735 C13.4334465,31.1139646 12.682811,31.4561626 11.8910226,31.6661273 C11.8791548,31.668902 11.8677355,31.6733299 11.8570995,31.6792812 C11.5458003,31.7279778 11.2641341,31.8917889 11.0678687,32.1382812 C11.0547149,32.1652812 11.0408687,32.1922812 11.0277149,32.2262042 C10.9638619,32.4422606 11.0118938,32.6759291 11.1557918,32.8492812 C11.2490536,32.9592339 11.3637807,33.0489896 11.4929456,33.1130504 C11.4998687,33.1130504 11.5067918,33.1199735 11.5130226,33.1199735 C12.1599572,33.4530204 12.8504752,33.6935248 13.5643303,33.834435 C13.5681538,33.834435 13.5712533,33.8375346 13.5712533,33.8413581 C14.007534,33.9071217 14.4367625,34.01327 14.8534072,34.158435 C14.866561,34.185435 14.9067149,34.3072812 14.9877149,34.509435 C15.109561,34.8735888 15.163561,35.2986658 15.2978687,35.7507427 C15.3410611,35.8761254 15.4456505,35.9705173 15.5747918,36.0006658 C15.7388705,36.0445586 15.9130989,36.0301212 16.0677149,35.9598196 L16.1078687,35.9598196 C17.1683201,35.7013892 18.2703821,35.6622822 19.3464841,35.8448965 L19.3464841,35.8448965 C20.4315535,36.2535903 21.4562558,36.8073953 22.3926379,37.4912042 L22.3926379,37.4981273 L22.3926379,37.4981273 C23.10973,38.0034322 23.9474761,38.3105421 24.8212533,38.388435 L24.8281764,38.388435 C25.5143469,38.4139 26.2014271,38.3981795 26.8857149,38.3413581 L26.899561,38.3413581 C27.4744042,38.2831799 28.0281917,38.0936888 28.5181764,37.7875119 C28.5250995,37.7805888 28.5320226,37.7743581 28.5389456,37.7743581 C29.6390226,37.146435 30.6103303,36.3980504 31.6827149,35.9252042 L31.6896379,35.9252042 C32.1027085,35.8245042 32.5265531,35.7747496 32.9517149,35.7770504 L32.9648687,35.7770504 C33.8532977,35.7521818 34.7422917,35.7984836 35.6233303,35.9155119 C35.651994,35.9224443 35.6818973,35.9224443 35.710561,35.9155119 C35.8287999,35.8973321 35.9366177,35.8374061 36.0144841,35.7465888 C36.0620286,35.6930225 36.0945174,35.6278059 36.1086379,35.5575888 C36.1356379,35.4696658 36.1557149,35.4295119 36.115561,35.5035888 C36.1298216,35.4803586 36.1412125,35.4554847 36.1494841,35.4295119 C36.2339578,34.9643114 36.407946,34.519936 36.6617918,34.1210504 C36.8161476,33.9975483 37.0115979,33.9371814 37.2087149,33.9521273 L37.2557918,33.9521273 C37.9800455,33.8355636 38.6885276,33.6362595 39.3673303,33.3581273 C39.3754326,33.3532172 39.3848956,33.3510334 39.3943303,33.3518965 C39.728477,33.2453419 40.0256283,33.0463609 40.2514072,32.7779735 L40.2514072,32.7717427 L40.2514072,32.7717427 C40.3478682,32.6348331 40.3830444,32.4639734 40.348509,32.3000945 C40.3139737,32.1362157 40.2128381,31.9940819 40.0693303,31.9077427 L40.066561,31.8973581 Z" id="Path_2193" stroke="#222221" stroke-width="0.769230769" fill="#FFFFFF"></path>
                        </g>
                    </g>
                </g>
            </g>
        </g>
    </g>
</svg>