<?xml version="1.0" encoding="UTF-8"?>
<svg width="50px" height="50px" viewBox="0 0 50 50" version="1.1" xmlns="http://www.w3.org/2000/svg" xmlns:xlink="http://www.w3.org/1999/xlink">
    <!-- Generator: Sketch 53.1 (72631) - https://sketchapp.com -->
    <title>icon-email</title>
    <desc>Created with Sketch.</desc>
    <g id="Page-1" stroke="none" stroke-width="1" fill="none" fill-rule="evenodd">
        <g id="BV-Phone-S3-V2" transform="translate(-268.000000, -303.000000)">
            <g id="Content" transform="translate(217.000000, 174.000000)">
                <g id="Animation-Copy" transform="translate(31.000000, 119.000000)">
                    <g id="icon-email" transform="translate(20.000000, 10.000000)">
                        <circle id="Oval" fill="#353167" fill-rule="nonzero" cx="25" cy="25" r="25"></circle>
                        <g id="email-icon" transform="translate(9.375000, 13.750000)">
                            <polygon id="Fill-2841" fill="#F0F1F1" points="30 22.5 0 22.5 0 0 30 0"></polygon>
                            <path d="M17.80275,8.75864062 C17.0911875,7.95801562 16.0711875,7.50004687 15.0000937,7.50004687 C13.929,7.50004687 12.909,7.95801562 12.1974375,8.75864062 L9.375e-05,22.4803594 L30.0000937,22.4803594 L17.80275,8.75864062 Z" id="Fill-2842" fill="#E2E4E5"></path>
                            <path d="M12.19725,13.7218125 C12.9088125,14.5224375 13.9288125,14.9804063 14.9999063,14.9804063 C16.071,14.9804063 17.091,14.5224375 17.8025625,13.7218125 L29.9999063,9.375e-05 L-9.375e-05,9.375e-05 L12.19725,13.7218125 Z" id="Fill-2843" fill="#FFFFFF"></path>
                            <ellipse id="Oval" fill="#81B44C" fill-rule="nonzero" cx="15.2941176" cy="11.8421053" rx="6.47058824" ry="6.51315789"></ellipse>
                            <path d="M15.01039,11.0828735 C14.8372221,11.0828735 14.6813732,11.1156353 14.5428389,11.1811598 C14.4043045,11.2466843 14.2882837,11.3363481 14.194773,11.4501539 C14.1012623,11.5639596 14.0302645,11.696731 13.9817775,11.848472 C13.9332905,12.000213 13.9090473,12.1622975 13.9090473,12.3347305 C13.9090473,12.389909 13.9142423,12.4709513 13.9246324,12.5778597 C13.9350224,12.6847681 13.9661922,12.7899507 14.0181426,12.8934104 C14.070093,12.9968702 14.154944,13.0882583 14.2726982,13.1675775 C14.3904524,13.2468966 14.5566912,13.2865556 14.7714194,13.2865556 C14.9653676,13.2865556 15.128143,13.2486209 15.2597506,13.1727504 C15.3913583,13.0968799 15.4952575,12.9985946 15.5714514,12.8778916 C15.6476453,12.7571885 15.7013266,12.6226928 15.7324968,12.4744005 C15.763667,12.3261081 15.7792519,12.1795423 15.7792519,12.0346986 C15.7792519,11.7588059 15.7169124,11.5311978 15.5922315,11.3518676 C15.4675505,11.1725373 15.2736053,11.0828735 15.01039,11.0828735 Z M18.3975384,14.4246074 C18.0234956,14.9350089 17.5576808,15.3229772 17.0000799,15.588524 C16.4424791,15.8540707 15.8450586,15.9868421 15.2078005,15.9868421 C14.653663,15.9868421 14.1324353,15.8920054 13.6441017,15.7023292 C13.155768,15.5126529 12.7280496,15.2488345 12.3609335,14.9108659 C11.9938174,14.5728973 11.7046313,14.1676859 11.4933664,13.6952197 C11.2821015,13.2227534 11.1764706,12.7071866 11.1764706,12.1485038 C11.1764706,11.5967184 11.2803698,11.0863245 11.4881714,10.6173069 C11.6959729,10.1482893 11.9799641,9.74135359 12.3401535,9.39648769 C12.7003428,9.05162179 13.1211346,8.78090612 13.6025416,8.58433256 C14.0839485,8.38775899 14.5982496,8.28947368 15.1454604,8.28947368 C15.6026238,8.28947368 16.0511221,8.36361874 16.4909687,8.51191108 C16.9308153,8.66020342 17.3239007,8.87918998 17.6702366,9.16887733 C18.0165725,9.45856469 18.2953687,9.81549554 18.5066336,10.2396806 C18.7178985,10.6638657 18.8235294,11.148395 18.8235294,11.6932831 C18.8235294,12.058841 18.7802381,12.3761128 18.6936541,12.6451082 C18.6070701,12.9141036 18.4962443,13.1417117 18.3611733,13.3279393 C18.2261023,13.5141669 18.0737167,13.6659056 17.9040121,13.78316 C17.7343075,13.9004144 17.5646055,13.9900782 17.3949009,14.0521541 C17.2251963,14.1142299 17.0624209,14.1573375 16.9065697,14.1814781 C16.7507185,14.2056188 16.6208445,14.2176889 16.5169437,14.2176889 C16.2260216,14.2176889 16.0182231,14.1590626 15.8935422,14.0418081 C15.7688613,13.9245537 15.7030584,13.7969553 15.6961317,13.6590089 L15.6753517,13.6590089 C15.5368173,13.7969553 15.3636519,13.9245537 15.1558504,14.0418081 C14.9480488,14.1590626 14.6779109,14.2176889 14.3454284,14.2176889 C14.1237734,14.2176889 13.9211699,14.1745813 13.7376119,14.0883648 C13.5540539,14.0021483 13.3964734,13.8831714 13.2648657,13.7314304 C13.1332581,13.5796894 13.0310905,13.3969132 12.95836,13.1830963 C12.8856294,12.9692795 12.8492647,12.7347742 12.8492647,12.4795734 C12.8492647,12.1760914 12.897751,11.8846841 12.9947251,11.6053427 C13.0916991,11.3260014 13.2284998,11.0777016 13.4051311,10.8604361 C13.5817624,10.6431706 13.7982191,10.4707402 14.0545077,10.3431399 C14.3107963,10.2155395 14.6017141,10.1517402 14.9272698,10.1517402 C15.2043386,10.1517402 15.4346485,10.1965721 15.6182065,10.2862373 C15.8017646,10.3759024 15.9454918,10.5276411 16.0493926,10.741458 L16.0701726,10.741458 L16.1532928,10.2758913 L17.1299552,10.2758913 L16.7455243,12.3140386 L16.6831841,12.6037245 C16.662404,12.700287 16.6520141,12.8002966 16.6520141,12.9037564 C16.6520141,13.0279081 16.6710623,13.1227448 16.7091592,13.1882693 C16.7472562,13.2537938 16.8217173,13.2865556 16.9325448,13.2865556 C17.0433723,13.2865556 17.1524664,13.2572424 17.2598306,13.1986152 C17.3671947,13.139988 17.4624356,13.0468756 17.5455563,12.9192753 C17.6286769,12.7916749 17.6962114,12.6313146 17.7481618,12.4381897 C17.8001122,12.2450648 17.826087,12.0140081 17.826087,11.7450127 C17.826087,11.3311737 17.7585525,10.9673456 17.6234815,10.6535176 C17.4884104,10.3396896 17.3013919,10.0758712 17.0624201,9.86205433 C16.8234483,9.64823747 16.5377254,9.48787723 16.205243,9.3809688 C15.8727605,9.27406037 15.5091132,9.22060696 15.1142903,9.22060696 C14.6848337,9.22060696 14.29348,9.29302771 13.9402174,9.43787139 C13.5869548,9.58271507 13.2839154,9.7861829 13.0310902,10.048281 C12.7782649,10.3103791 12.5825881,10.6207537 12.4440537,10.9794143 C12.3055193,11.3380748 12.2362532,11.7277674 12.2362532,12.1485038 C12.2362532,12.6037268 12.312446,13.0106625 12.4648338,13.369323 C12.6172216,13.7279835 12.830215,14.031461 13.1038203,14.2797644 C13.3774257,14.5280679 13.7012449,14.7194656 14.0752877,14.8539633 C14.4493305,14.988461 14.8545375,15.0557088 15.2909207,15.0557088 C15.6857437,15.0557088 16.0476593,15.0005311 16.3766784,14.890174 C16.7056975,14.7798169 16.998347,14.6246296 17.2546355,14.4246074 L18.3975384,14.4246074 Z" id="@" fill="#FCFCFF"></path>
                        </g>
                    </g>
                </g>
            </g>
        </g>
    </g>
</svg>